<svg width="25" height="24" viewBox="0 0 25 24" fill="none" xmlns="http://www.w3.org/2000/svg">
<g id="material-symbols:check-circle-rounded">
<path id="Vector" d="M10.8216 13.4176L8.62665 11.3272C8.43949 11.1489 8.20127 11.0598 7.91202 11.0598C7.62276 11.0598 7.38455 11.1489 7.19738 11.3272C7.01022 11.5054 6.91663 11.7323 6.91663 12.0078C6.91663 12.2833 7.01022 12.5101 7.19738 12.6884L10.107 15.4594C10.3111 15.6539 10.5494 15.7511 10.8216 15.7511C11.0938 15.7511 11.3321 15.6539 11.5362 15.4594L17.3044 9.96598C17.4915 9.78773 17.5851 9.56086 17.5851 9.28538C17.5851 9.0099 17.4915 8.78303 17.3044 8.60478C17.1172 8.42652 16.879 8.3374 16.5897 8.3374C16.3005 8.3374 16.0622 8.42652 15.8751 8.60478L10.8216 13.4176ZM12.2509 21.3904C10.8386 21.3904 9.51144 21.135 8.26934 20.6242C7.02723 20.1135 5.94677 19.4209 5.02796 18.5465C4.10914 17.6714 3.38192 16.6424 2.84628 15.4594C2.31065 14.2765 2.04249 13.0125 2.04181 11.6675C2.04181 10.3225 2.30997 9.05851 2.84628 7.87556C3.3826 6.6926 4.10982 5.66359 5.02796 4.78853C5.94677 3.91347 7.02723 3.22087 8.26934 2.71075C9.51144 2.20062 10.8386 1.94523 12.2509 1.94458C13.6631 1.94458 14.9903 2.19997 16.2324 2.71075C17.4745 3.22152 18.555 3.91412 19.4738 4.78853C20.3926 5.66359 21.1202 6.6926 21.6565 7.87556C22.1928 9.05851 22.4606 10.3225 22.4599 11.6675C22.4599 13.0125 22.1918 14.2765 21.6555 15.4594C21.1191 16.6424 20.3919 17.6714 19.4738 18.5465C18.555 19.4215 17.4745 20.1144 16.2324 20.6252C14.9903 21.136 13.6631 21.3911 12.2509 21.3904Z" fill="url(#paint0_linear_5_190)"/>
</g>
<defs>
<linearGradient id="paint0_linear_5_190" x1="2.04181" y1="1.94458" x2="29.6085" y2="6.58739" gradientUnits="userSpaceOnUse">
<stop stop-color="#F26EA8"/>
<stop offset="1" stop-color="#FAF920"/>
</linearGradient>
</defs>
</svg>
