<svg width="547" height="157" viewBox="0 0 547 157" fill="none" xmlns="http://www.w3.org/2000/svg">
<g clip-path="url(#clip0_215_199)">
<path d="M0.697266 148L15.6973 139.34V156.66L0.697266 148ZM523.697 51.5H341.858V48.5H523.697V51.5ZM319.358 74V124H316.358V74H319.358ZM293.858 149.5H14.1973V146.5H293.858V149.5ZM319.358 124C319.358 138.083 307.941 149.5 293.858 149.5V146.5C306.284 146.5 316.358 136.426 316.358 124H319.358ZM341.858 51.5C329.432 51.5 319.358 61.5736 319.358 74H316.358C316.358 59.9167 327.775 48.5 341.858 48.5V51.5Z" fill="#FD7D00"/>
<path d="M534.697 62C541.324 62 546.697 56.6274 546.697 50C546.697 43.3726 541.324 38 534.697 38C528.07 38 522.697 43.3726 522.697 50C522.697 56.6274 528.07 62 534.697 62Z" fill="#FD7D00"/>
<path d="M145.912 67.632C145.912 69.84 145.304 71.728 144.088 73.296C142.776 75.056 141.048 75.936 138.904 75.936H120.76V84H115V59.28H138.904C141.048 59.28 142.776 60.16 144.088 61.92C145.304 63.52 145.912 65.424 145.912 67.632ZM140.152 67.632C140.152 65.904 139.736 65.04 138.904 65.04H120.76V70.176H138.904C139.736 70.176 140.152 69.328 140.152 67.632ZM178.76 84H172.904V74.496H154.088V84H148.328V59.28H154.088V68.736H172.904V59.28H178.76V84ZM211.429 84H205.669V76.128H190.501V70.368H205.669V66.912C205.669 65.664 205.253 65.04 204.421 65.04H188.101C187.301 65.04 186.901 65.664 186.901 66.912V84H181.141V66.912C181.141 64.832 181.781 63.04 183.061 61.536C184.373 60.032 186.053 59.28 188.101 59.28H204.421C206.501 59.28 208.181 60.032 209.461 61.536C210.773 63.04 211.429 64.832 211.429 66.912V84ZM243.285 76.368C243.285 78.448 242.661 80.224 241.413 81.696C240.069 83.232 238.373 84 236.325 84H215.013V78.24H236.325C237.125 78.24 237.525 77.616 237.525 76.368C237.525 75.12 237.125 74.496 236.325 74.496H220.821C218.773 74.496 217.077 73.728 215.733 72.192C214.453 70.752 213.812 68.992 213.812 66.912C213.812 64.832 214.469 63.04 215.781 61.536C217.093 60.032 218.773 59.28 220.821 59.28H242.133V65.04H220.821C220.021 65.04 219.621 65.664 219.621 66.912C219.621 68.128 220.021 68.736 220.821 68.736H236.325C238.373 68.736 240.069 69.504 241.413 71.04C242.661 72.512 243.285 74.288 243.285 76.368ZM272.04 65.04H251.448V68.736H270.696V74.496H251.448V78.24H271.992V84H245.688V59.28H272.04V65.04Z" fill="white"/>
<path d="M100.632 38.432C100.632 43.9787 98.968 48.672 95.64 52.512C92.056 56.608 87.5333 58.656 82.072 58.656H64.536C59.5867 58.656 56.0027 59.168 53.784 60.192C50.6267 61.728 48.7067 64.544 48.024 68.64H97.56V84H31.128L31 76.192C30.6587 54.2613 41.8373 43.296 64.536 43.296H82.072C84.2907 43.296 85.4 41.632 85.4 38.304C85.4 35.0613 84.2907 33.44 82.072 33.44H34.2V18.08H82.072C87.5333 18.08 92.056 20.128 95.64 24.224C98.968 28.1493 100.632 32.8853 100.632 38.432Z" fill="white"/>
</g>
<defs>
<clipPath id="clip0_215_199">
<rect width="547" height="157" fill="white"/>
</clipPath>
</defs>
</svg>
