<svg width="548" height="156" viewBox="0 0 548 156" fill="none" xmlns="http://www.w3.org/2000/svg">
<path d="M547.697 147L532.697 138.34V155.66L547.697 147ZM24.6973 50.5H206.537V47.5H24.6973V50.5ZM229.037 73V123H232.037V73H229.037ZM254.537 148.5H534.197V145.5H254.537V148.5ZM229.037 123C229.037 137.083 240.453 148.5 254.537 148.5V145.5C242.11 145.5 232.037 135.426 232.037 123H229.037ZM206.537 50.5C218.963 50.5 229.037 60.5736 229.037 73H232.037C232.037 58.9167 220.62 47.5 206.537 47.5V50.5Z" fill="#FD7D00"/>
<path d="M12.6973 61C19.3247 61 24.6973 55.6274 24.6973 49C24.6973 42.3726 19.3247 37 12.6973 37C6.06985 37 0.697266 42.3726 0.697266 49C0.697266 55.6274 6.06985 61 12.6973 61Z" fill="#FD7D00"/>
<path d="M401.912 82.632C401.912 84.84 401.304 86.728 400.088 88.296C398.776 90.056 397.048 90.936 394.904 90.936H376.76V99H371V74.28H394.904C397.048 74.28 398.776 75.16 400.088 76.92C401.304 78.52 401.912 80.424 401.912 82.632ZM396.152 82.632C396.152 80.904 395.736 80.04 394.904 80.04H376.76V85.176H394.904C395.736 85.176 396.152 84.328 396.152 82.632ZM434.76 99H428.904V89.496H410.088V99H404.328V74.28H410.088V83.736H428.904V74.28H434.76V99ZM467.429 99H461.669V91.128H446.501V85.368H461.669V81.912C461.669 80.664 461.253 80.04 460.421 80.04H444.101C443.301 80.04 442.901 80.664 442.901 81.912V99H437.141V81.912C437.141 79.832 437.781 78.04 439.061 76.536C440.373 75.032 442.053 74.28 444.101 74.28H460.421C462.501 74.28 464.181 75.032 465.461 76.536C466.773 78.04 467.429 79.832 467.429 81.912V99ZM499.285 91.368C499.285 93.448 498.661 95.224 497.413 96.696C496.069 98.232 494.373 99 492.325 99H471.013V93.24H492.325C493.125 93.24 493.525 92.616 493.525 91.368C493.525 90.12 493.125 89.496 492.325 89.496H476.821C474.773 89.496 473.077 88.728 471.733 87.192C470.453 85.752 469.812 83.992 469.812 81.912C469.812 79.832 470.469 78.04 471.781 76.536C473.093 75.032 474.773 74.28 476.821 74.28H498.133V80.04H476.821C476.021 80.04 475.621 80.664 475.621 81.912C475.621 83.128 476.021 83.736 476.821 83.736H492.325C494.373 83.736 496.069 84.504 497.413 86.04C498.661 87.512 499.285 89.288 499.285 91.368ZM528.04 80.04H507.448V83.736H526.696V89.496H507.448V93.24H527.992V99H501.688V74.28H528.04V80.04Z" fill="white"/>
<path d="M348.976 68.592C354.352 71.92 357.04 76.9973 357.04 83.824C357.04 88.7733 355.461 92.9547 352.304 96.368C348.891 100.123 344.283 102 338.48 102H304.56C298.757 102 294.149 100.123 290.736 96.368C287.579 92.9547 286 88.7733 286 83.824V81.648H301.232C301.232 84.976 302.341 86.64 304.56 86.64H338.48C340.699 86.64 341.808 84.976 341.808 81.648C341.808 78.32 340.699 76.656 338.48 76.656H307.12V61.424H337.2C339.419 61.424 340.528 59.76 340.528 56.432C340.528 53.104 339.419 51.44 337.2 51.44H305.84C303.621 51.44 302.512 53.1467 302.512 56.56H287.28V54.384C287.28 49.4347 288.816 45.2533 291.888 41.84C295.301 38 299.952 36.08 305.84 36.08H337.2C343.088 36.08 347.739 37.9573 351.152 41.712C354.224 45.1253 355.76 49.264 355.76 54.128C355.76 60.3573 353.499 65.1787 348.976 68.592Z" fill="white"/>
</svg>
