<svg width="697" height="202" viewBox="0 0 697 202" fill="none" xmlns="http://www.w3.org/2000/svg">
<path d="M697 191.077L677.852 180.155V202L697 191.077ZM29.361 69.3637H261.49V65.5798H29.361V69.3637ZM290.212 97.7425V160.807H294.042V97.7425H290.212ZM322.765 192.969H679.767V189.185H322.765V192.969ZM290.212 160.807C290.212 178.569 304.786 192.969 322.765 192.969V189.185C306.901 189.185 294.042 176.479 294.042 160.807H290.212ZM261.49 69.3637C277.352 69.3637 290.212 82.0693 290.212 97.7425H294.042C294.042 79.9795 279.468 65.5798 261.49 65.5798V69.3637Z" fill="#FD7D00"/>
<path d="M15.3187 82.6072C23.779 82.6072 30.6374 75.8308 30.6374 67.4718C30.6374 59.1128 23.779 52.3364 15.3187 52.3364C6.85841 52.3364 0 59.1128 0 67.4718C0 75.8308 6.85841 82.6072 15.3187 82.6072Z" fill="#FD7D00"/>
<path d="M490.101 86.0697C490.101 88.2777 489.493 90.1657 488.277 91.7337C486.965 93.4937 485.237 94.3737 483.093 94.3737H464.949V102.438H459.189V77.7177H483.093C485.237 77.7177 486.965 78.5977 488.277 80.3577C489.493 81.9577 490.101 83.8617 490.101 86.0697ZM484.341 86.0697C484.341 84.3417 483.925 83.4777 483.093 83.4777H464.949V88.6137H483.093C483.925 88.6137 484.341 87.7657 484.341 86.0697ZM522.95 102.438H517.094V92.9337H498.278V102.438H492.518V77.7177H498.278V87.1737H517.094V77.7177H522.95V102.438ZM555.618 102.438H549.858V94.5657H534.69V88.8057H549.858V85.3497C549.858 84.1017 549.442 83.4777 548.61 83.4777H532.29C531.49 83.4777 531.09 84.1017 531.09 85.3497V102.438H525.33V85.3497C525.33 83.2697 525.97 81.4777 527.25 79.9737C528.562 78.4697 530.242 77.7177 532.29 77.7177H548.61C550.69 77.7177 552.37 78.4697 553.65 79.9737C554.962 81.4777 555.618 83.2697 555.618 85.3497V102.438ZM587.474 94.8057C587.474 96.8857 586.85 98.6617 585.602 100.134C584.258 101.67 582.562 102.438 580.514 102.438H559.202V96.6777H580.514C581.314 96.6777 581.714 96.0537 581.714 94.8057C581.714 93.5577 581.314 92.9337 580.514 92.9337H565.01C562.962 92.9337 561.266 92.1657 559.922 90.6297C558.642 89.1897 558.002 87.4297 558.002 85.3497C558.002 83.2697 558.658 81.4777 559.97 79.9737C561.282 78.4697 562.962 77.7177 565.01 77.7177H586.322V83.4777H565.01C564.21 83.4777 563.81 84.1017 563.81 85.3497C563.81 86.5657 564.21 87.1737 565.01 87.1737H580.514C582.562 87.1737 584.258 87.9417 585.602 89.4777C586.85 90.9497 587.474 92.7257 587.474 94.8057ZM616.229 83.4777H595.637V87.1737H614.885V92.9337H595.637V96.6777H616.181V102.438H589.877V77.7177H616.229V83.4777Z" fill="white"/>
<path d="M442.624 102H427.264V51.44H412.416V36.08H442.624V102Z" fill="white"/>
</svg>
