<svg width="548" height="156" viewBox="0 0 548 156" fill="none" xmlns="http://www.w3.org/2000/svg">
<path d="M400.518 83.192C399.238 83.192 398.046 82.976 396.942 82.544C395.854 82.112 394.91 81.512 394.11 80.744C393.31 79.96 392.686 79.048 392.238 78.008C391.79 76.968 391.566 75.832 391.566 74.6C391.566 73.368 391.79 72.232 392.238 71.192C392.686 70.152 393.31 69.248 394.11 68.48C394.91 67.696 395.854 67.088 396.942 66.656C398.03 66.224 399.222 66.008 400.518 66.008C401.798 66.008 402.974 66.224 404.046 66.656C405.134 67.072 406.078 67.672 406.878 68.456C407.694 69.224 408.318 70.128 408.75 71.168C409.198 72.208 409.422 73.352 409.422 74.6C409.422 75.848 409.198 76.992 408.75 78.032C408.318 79.072 407.694 79.984 406.878 80.768C406.078 81.536 405.134 82.136 404.046 82.568C402.974 82.984 401.798 83.192 400.518 83.192ZM406.014 86.504C405.454 86.504 404.918 86.432 404.406 86.288C403.894 86.16 403.382 85.944 402.87 85.64C402.358 85.352 401.83 84.968 401.286 84.488C400.742 84.024 400.15 83.448 399.51 82.76L402.078 82.088C402.558 82.68 403.014 83.16 403.446 83.528C403.894 83.912 404.334 84.184 404.766 84.344C405.198 84.52 405.622 84.608 406.038 84.608C407.238 84.608 408.262 84.128 409.11 83.168L410.238 84.536C409.15 85.848 407.742 86.504 406.014 86.504ZM400.518 81.056C401.446 81.056 402.302 80.896 403.086 80.576C403.886 80.256 404.574 79.8 405.15 79.208C405.742 78.616 406.198 77.928 406.518 77.144C406.854 76.36 407.022 75.512 407.022 74.6C407.022 73.672 406.854 72.816 406.518 72.032C406.198 71.248 405.742 70.568 405.15 69.992C404.574 69.4 403.886 68.944 403.086 68.624C402.302 68.304 401.446 68.144 400.518 68.144C399.574 68.144 398.702 68.304 397.902 68.624C397.118 68.944 396.43 69.4 395.838 69.992C395.246 70.568 394.782 71.248 394.446 72.032C394.126 72.816 393.966 73.672 393.966 74.6C393.966 75.512 394.126 76.36 394.446 77.144C394.782 77.928 395.246 78.616 395.838 79.208C396.43 79.8 397.118 80.256 397.902 80.576C398.702 80.896 399.574 81.056 400.518 81.056ZM420.05 83.192C417.842 83.192 416.106 82.56 414.842 81.296C413.578 80.032 412.946 78.184 412.946 75.752V66.2H415.346V75.656C415.346 77.528 415.754 78.896 416.57 79.76C417.402 80.624 418.57 81.056 420.074 81.056C421.594 81.056 422.762 80.624 423.578 79.76C424.41 78.896 424.826 77.528 424.826 75.656V66.2H427.154V75.752C427.154 78.184 426.522 80.032 425.258 81.296C424.01 82.56 422.274 83.192 420.05 83.192ZM429.179 83L436.787 66.2H439.163L446.795 83H444.275L437.483 67.544H438.443L431.651 83H429.179ZM432.419 78.8L433.067 76.88H442.523L443.219 78.8H432.419ZM449.301 83V66.2H455.853C457.325 66.2 458.581 66.432 459.621 66.896C460.661 67.36 461.461 68.032 462.021 68.912C462.581 69.792 462.861 70.84 462.861 72.056C462.861 73.272 462.581 74.32 462.021 75.2C461.461 76.064 460.661 76.728 459.621 77.192C458.581 77.656 457.325 77.888 455.853 77.888H450.621L451.701 76.784V83H449.301ZM460.533 83L456.261 76.904H458.829L463.149 83H460.533ZM451.701 77.024L450.621 75.848H455.781C457.317 75.848 458.477 75.52 459.261 74.864C460.061 74.192 460.461 73.256 460.461 72.056C460.461 70.856 460.061 69.928 459.261 69.272C458.477 68.616 457.317 68.288 455.781 68.288H450.621L451.701 67.088V77.024ZM469.84 83V68.288H464.08V66.2H477.976V68.288H472.216V83H469.84ZM482.774 73.448H491.414V75.488H482.774V73.448ZM482.99 80.912H492.782V83H480.59V66.2H492.446V68.288H482.99V80.912ZM496.668 83V66.2H503.22C504.692 66.2 505.948 66.432 506.988 66.896C508.028 67.36 508.828 68.032 509.388 68.912C509.948 69.792 510.228 70.84 510.228 72.056C510.228 73.272 509.948 74.32 509.388 75.2C508.828 76.064 508.028 76.728 506.988 77.192C505.948 77.656 504.692 77.888 503.22 77.888H497.988L499.068 76.784V83H496.668ZM507.9 83L503.628 76.904H506.196L510.516 83H507.9ZM499.068 77.024L497.988 75.848H503.148C504.684 75.848 505.844 75.52 506.628 74.864C507.428 74.192 507.828 73.256 507.828 72.056C507.828 70.856 507.428 69.928 506.628 69.272C505.844 68.616 504.684 68.288 503.148 68.288H497.988L499.068 67.088V77.024Z" fill="#FD7D00"/>
<path d="M339.911 98.024C333.596 98.024 327.452 97.0427 321.479 95.08C315.591 93.1173 310.77 90.472 307.015 87.144L312.903 77.032C315.89 79.848 319.772 82.152 324.551 83.944C329.33 85.736 334.45 86.632 339.911 86.632C346.567 86.632 351.73 85.224 355.399 82.408C359.154 79.5067 361.031 75.624 361.031 70.76C361.031 66.0667 359.239 62.312 355.655 59.496C352.156 56.5947 346.567 55.144 338.887 55.144H331.719V46.184L358.343 13.416L360.135 18.536H311.111V7.39999H370.247V16.104L343.751 48.744L337.095 44.776H341.319C352.156 44.776 360.263 47.208 365.639 52.072C371.1 56.936 373.831 63.1227 373.831 70.632C373.831 75.6667 372.594 80.2747 370.119 84.456C367.644 88.6373 363.89 91.9653 358.855 94.44C353.906 96.8293 347.591 98.024 339.911 98.024Z" fill="white"/>
<path d="M547.697 147L532.697 138.34V155.66L547.697 147ZM24.6973 50.5H206.537V47.5H24.6973V50.5ZM229.037 73V123H232.037V73H229.037ZM254.537 148.5H534.197V145.5H254.537V148.5ZM229.037 123C229.037 137.083 240.453 148.5 254.537 148.5V145.5C242.11 145.5 232.037 135.426 232.037 123H229.037ZM206.537 50.5C218.963 50.5 229.037 60.5736 229.037 73H232.037C232.037 58.9167 220.62 47.5 206.537 47.5V50.5Z" fill="#FD7D00"/>
<circle cx="12.6973" cy="49" r="12" fill="#FD7D00"/>
</svg>
