<svg width="463" height="138" viewBox="0 0 463 138" fill="none" xmlns="http://www.w3.org/2000/svg">
<path d="M370 129.084L355 120.424V137.744L370 129.084ZM15.5859 64.1738H131.074V61.1738H15.5859V64.1738ZM153.574 86.6738V105.084H156.574V86.6738H153.574ZM179.074 130.584H356.5V127.584H179.074V130.584ZM153.574 105.084C153.574 119.168 164.991 130.584 179.074 130.584V127.584C166.648 127.584 156.574 117.511 156.574 105.084H153.574ZM131.074 64.1738C143.501 64.1738 153.574 74.2474 153.574 86.6738H156.574C156.574 72.5906 145.158 61.1738 131.074 61.1738V64.1738Z" fill="#FD7D00"/>
<path d="M8.13188 70.8058C12.623 70.8058 16.2638 67.165 16.2638 62.6739C16.2638 58.1828 12.623 54.542 8.13188 54.542C3.64077 54.542 0 58.1828 0 62.6739C0 67.165 3.64077 70.8058 8.13188 70.8058Z" fill="#FD7D00"/>
<path d="M301.912 85.632C301.912 87.84 301.304 89.728 300.088 91.296C298.776 93.056 297.048 93.936 294.904 93.936H276.76V102H271V77.28H294.904C297.048 77.28 298.776 78.16 300.088 79.92C301.304 81.52 301.912 83.424 301.912 85.632ZM296.152 85.632C296.152 83.904 295.736 83.04 294.904 83.04H276.76V88.176H294.904C295.736 88.176 296.152 87.328 296.152 85.632ZM334.76 102H328.904V92.496H310.088V102H304.328V77.28H310.088V86.736H328.904V77.28H334.76V102ZM367.429 102H361.669V94.128H346.501V88.368H361.669V84.912C361.669 83.664 361.253 83.04 360.421 83.04H344.101C343.301 83.04 342.901 83.664 342.901 84.912V102H337.141V84.912C337.141 82.832 337.781 81.04 339.061 79.536C340.373 78.032 342.053 77.28 344.101 77.28H360.421C362.501 77.28 364.181 78.032 365.461 79.536C366.773 81.04 367.429 82.832 367.429 84.912V102ZM399.285 94.368C399.285 96.448 398.661 98.224 397.413 99.696C396.069 101.232 394.373 102 392.325 102H371.013V96.24H392.325C393.125 96.24 393.525 95.616 393.525 94.368C393.525 93.12 393.125 92.496 392.325 92.496H376.821C374.773 92.496 373.077 91.728 371.733 90.192C370.453 88.752 369.812 86.992 369.812 84.912C369.812 82.832 370.469 81.04 371.781 79.536C373.093 78.032 374.773 77.28 376.821 77.28H398.133V83.04H376.821C376.021 83.04 375.621 83.664 375.621 84.912C375.621 86.128 376.021 86.736 376.821 86.736H392.325C394.373 86.736 396.069 87.504 397.413 89.04C398.661 90.512 399.285 92.288 399.285 94.368ZM428.04 83.04H407.448V86.736H426.696V92.496H407.448V96.24H427.992V102H401.688V77.28H428.04V83.04Z" fill="white"/>
<path d="M264.632 56.432C264.632 61.9787 262.968 66.672 259.64 70.512C256.056 74.608 251.533 76.656 246.072 76.656H228.536C223.587 76.656 220.003 77.168 217.784 78.192C214.627 79.728 212.707 82.544 212.024 86.64H261.56V102H195.128L195 94.192C194.659 72.2613 205.837 61.296 228.536 61.296H246.072C248.291 61.296 249.4 59.632 249.4 56.304C249.4 53.0613 248.291 51.44 246.072 51.44H198.2V36.08H246.072C251.533 36.08 256.056 38.128 259.64 42.224C262.968 46.1493 264.632 50.8853 264.632 56.432Z" fill="white"/>
</svg>
