<svg width="547" height="157" viewBox="0 0 547 157" fill="none" xmlns="http://www.w3.org/2000/svg">
<path d="M120.518 90.192C119.238 90.192 118.046 89.976 116.942 89.544C115.854 89.112 114.91 88.512 114.11 87.744C113.31 86.96 112.686 86.048 112.238 85.008C111.79 83.968 111.566 82.832 111.566 81.6C111.566 80.368 111.79 79.232 112.238 78.192C112.686 77.152 113.31 76.248 114.11 75.48C114.91 74.696 115.854 74.088 116.942 73.656C118.03 73.224 119.222 73.008 120.518 73.008C121.798 73.008 122.974 73.224 124.046 73.656C125.134 74.072 126.078 74.672 126.878 75.456C127.694 76.224 128.318 77.128 128.75 78.168C129.198 79.208 129.422 80.352 129.422 81.6C129.422 82.848 129.198 83.992 128.75 85.032C128.318 86.072 127.694 86.984 126.878 87.768C126.078 88.536 125.134 89.136 124.046 89.568C122.974 89.984 121.798 90.192 120.518 90.192ZM126.014 93.504C125.454 93.504 124.918 93.432 124.406 93.288C123.894 93.16 123.382 92.944 122.87 92.64C122.358 92.352 121.83 91.968 121.286 91.488C120.742 91.024 120.15 90.448 119.51 89.76L122.078 89.088C122.558 89.68 123.014 90.16 123.446 90.528C123.894 90.912 124.334 91.184 124.766 91.344C125.198 91.52 125.622 91.608 126.038 91.608C127.238 91.608 128.262 91.128 129.11 90.168L130.238 91.536C129.15 92.848 127.742 93.504 126.014 93.504ZM120.518 88.056C121.446 88.056 122.302 87.896 123.086 87.576C123.886 87.256 124.574 86.8 125.15 86.208C125.742 85.616 126.198 84.928 126.518 84.144C126.854 83.36 127.022 82.512 127.022 81.6C127.022 80.672 126.854 79.816 126.518 79.032C126.198 78.248 125.742 77.568 125.15 76.992C124.574 76.4 123.886 75.944 123.086 75.624C122.302 75.304 121.446 75.144 120.518 75.144C119.574 75.144 118.702 75.304 117.902 75.624C117.118 75.944 116.43 76.4 115.838 76.992C115.246 77.568 114.782 78.248 114.446 79.032C114.126 79.816 113.966 80.672 113.966 81.6C113.966 82.512 114.126 83.36 114.446 84.144C114.782 84.928 115.246 85.616 115.838 86.208C116.43 86.8 117.118 87.256 117.902 87.576C118.702 87.896 119.574 88.056 120.518 88.056ZM140.05 90.192C137.842 90.192 136.106 89.56 134.842 88.296C133.578 87.032 132.946 85.184 132.946 82.752V73.2H135.346V82.656C135.346 84.528 135.754 85.896 136.57 86.76C137.402 87.624 138.57 88.056 140.074 88.056C141.594 88.056 142.762 87.624 143.578 86.76C144.41 85.896 144.826 84.528 144.826 82.656V73.2H147.154V82.752C147.154 85.184 146.522 87.032 145.258 88.296C144.01 89.56 142.274 90.192 140.05 90.192ZM149.179 90L156.787 73.2H159.163L166.795 90H164.275L157.483 74.544H158.443L151.651 90H149.179ZM152.419 85.8L153.067 83.88H162.523L163.219 85.8H152.419ZM169.301 90V73.2H175.853C177.325 73.2 178.581 73.432 179.621 73.896C180.661 74.36 181.461 75.032 182.021 75.912C182.581 76.792 182.861 77.84 182.861 79.056C182.861 80.272 182.581 81.32 182.021 82.2C181.461 83.064 180.661 83.728 179.621 84.192C178.581 84.656 177.325 84.888 175.853 84.888H170.621L171.701 83.784V90H169.301ZM180.533 90L176.261 83.904H178.829L183.149 90H180.533ZM171.701 84.024L170.621 82.848H175.781C177.317 82.848 178.477 82.52 179.261 81.864C180.061 81.192 180.461 80.256 180.461 79.056C180.461 77.856 180.061 76.928 179.261 76.272C178.477 75.616 177.317 75.288 175.781 75.288H170.621L171.701 74.088V84.024ZM189.84 90V75.288H184.08V73.2H197.976V75.288H192.216V90H189.84ZM202.774 80.448H211.414V82.488H202.774V80.448ZM202.99 87.912H212.782V90H200.59V73.2H212.446V75.288H202.99V87.912ZM216.668 90V73.2H223.22C224.692 73.2 225.948 73.432 226.988 73.896C228.028 74.36 228.828 75.032 229.388 75.912C229.948 76.792 230.228 77.84 230.228 79.056C230.228 80.272 229.948 81.32 229.388 82.2C228.828 83.064 228.028 83.728 226.988 84.192C225.948 84.656 224.692 84.888 223.22 84.888H217.988L219.068 83.784V90H216.668ZM227.9 90L223.628 83.904H226.196L230.516 90H227.9ZM219.068 84.024L217.988 82.848H223.148C224.684 82.848 225.844 82.52 226.628 81.864C227.428 81.192 227.828 80.256 227.828 79.056C227.828 77.856 227.428 76.928 226.628 76.272C225.844 75.616 224.684 75.288 223.148 75.288H217.988L219.068 74.088V84.024Z" fill="#FD7D00"/>
<path d="M46.3633 83.864L73.7553 57.496C85.9153 45.848 88.4753 38.04 88.4753 29.336C88.4753 13.976 76.4433 4.376 57.7553 4.376C43.8033 4.376 31.8993 9.368 24.9873 17.944L33.6913 25.496C39.1953 18.84 47.0033 15.768 56.6033 15.768C69.1473 15.768 75.6753 21.4 75.6753 30.616C75.6753 36.248 73.8833 41.88 64.4113 51.096L27.9313 86.296V95H92.3153V83.864H46.3633Z" fill="white"/>
<path d="M0.697266 148L15.6973 139.34V156.66L0.697266 148ZM523.697 51.5H341.858V48.5H523.697V51.5ZM319.358 74V124H316.358V74H319.358ZM293.858 149.5H14.1973V146.5H293.858V149.5ZM319.358 124C319.358 138.083 307.941 149.5 293.858 149.5V146.5C306.284 146.5 316.358 136.426 316.358 124H319.358ZM341.858 51.5C329.432 51.5 319.358 61.5736 319.358 74H316.358C316.358 59.9167 327.775 48.5 341.858 48.5V51.5Z" fill="#FD7D00"/>
<circle cx="534.697" cy="50" r="12" fill="#FD7D00"/>
</svg>
