<svg width="194" height="86" viewBox="0 0 194 86" fill="none" xmlns="http://www.w3.org/2000/svg">
<path d="M161.266 10.301C172.697 17.0317 181.426 28.9382 187.593 41.0551C191.511 48.7635 194.663 58.4788 189.796 65.6219C185.349 72.2073 175.568 73.3373 168.206 70.2786C160.843 67.2199 155.365 60.9956 150.16 54.9364C144.954 48.8773 139.602 42.578 132.476 39.1661C128.228 37.1768 123.54 36.3118 118.862 36.6541C114.312 36.9829 109.423 38.831 107.367 42.902C105.311 46.9729 108.049 53.1754 112.622 52.9336C116.636 52.7278 118.955 48.1309 119.267 44.1548C119.822 36.7592 116.304 29.5437 111.603 23.7841C96.7305 5.56261 70.807 -0.349372 47.4643 2.51995C40.2701 3.41234 33.0375 5.05007 26.7452 8.65136C17.2092 14.0949 10.5651 23.6087 6.3084 33.7252C2.24311 43.3969 0.126244 54.5446 3.90377 64.3925C7.24825 73.0105 14.4277 79.1723 22.3151 84.3058" stroke="url(#paint0_linear_876_154)" stroke-width="3" stroke-miterlimit="10" stroke-linecap="round"/>
<defs>
<linearGradient id="paint0_linear_876_154" x1="4.1831" y1="66.0304" x2="182.686" y2="18.2008" gradientUnits="userSpaceOnUse">
<stop stop-color="white"/>
<stop offset="1" stop-color="white" stop-opacity="0"/>
</linearGradient>
</defs>
</svg>
