<svg width="547" height="157" viewBox="0 0 547 157" fill="none" xmlns="http://www.w3.org/2000/svg">
<path d="M420.518 92.192C419.238 92.192 418.046 91.976 416.942 91.544C415.854 91.112 414.91 90.512 414.11 89.744C413.31 88.96 412.686 88.048 412.238 87.008C411.79 85.968 411.566 84.832 411.566 83.6C411.566 82.368 411.79 81.232 412.238 80.192C412.686 79.152 413.31 78.248 414.11 77.48C414.91 76.696 415.854 76.088 416.942 75.656C418.03 75.224 419.222 75.008 420.518 75.008C421.798 75.008 422.974 75.224 424.046 75.656C425.134 76.072 426.078 76.672 426.878 77.456C427.694 78.224 428.318 79.128 428.75 80.168C429.198 81.208 429.422 82.352 429.422 83.6C429.422 84.848 429.198 85.992 428.75 87.032C428.318 88.072 427.694 88.984 426.878 89.768C426.078 90.536 425.134 91.136 424.046 91.568C422.974 91.984 421.798 92.192 420.518 92.192ZM426.014 95.504C425.454 95.504 424.918 95.432 424.406 95.288C423.894 95.16 423.382 94.944 422.87 94.64C422.358 94.352 421.83 93.968 421.286 93.488C420.742 93.024 420.15 92.448 419.51 91.76L422.078 91.088C422.558 91.68 423.014 92.16 423.446 92.528C423.894 92.912 424.334 93.184 424.766 93.344C425.198 93.52 425.622 93.608 426.038 93.608C427.238 93.608 428.262 93.128 429.11 92.168L430.238 93.536C429.15 94.848 427.742 95.504 426.014 95.504ZM420.518 90.056C421.446 90.056 422.302 89.896 423.086 89.576C423.886 89.256 424.574 88.8 425.15 88.208C425.742 87.616 426.198 86.928 426.518 86.144C426.854 85.36 427.022 84.512 427.022 83.6C427.022 82.672 426.854 81.816 426.518 81.032C426.198 80.248 425.742 79.568 425.15 78.992C424.574 78.4 423.886 77.944 423.086 77.624C422.302 77.304 421.446 77.144 420.518 77.144C419.574 77.144 418.702 77.304 417.902 77.624C417.118 77.944 416.43 78.4 415.838 78.992C415.246 79.568 414.782 80.248 414.446 81.032C414.126 81.816 413.966 82.672 413.966 83.6C413.966 84.512 414.126 85.36 414.446 86.144C414.782 86.928 415.246 87.616 415.838 88.208C416.43 88.8 417.118 89.256 417.902 89.576C418.702 89.896 419.574 90.056 420.518 90.056ZM440.05 92.192C437.842 92.192 436.106 91.56 434.842 90.296C433.578 89.032 432.946 87.184 432.946 84.752V75.2H435.346V84.656C435.346 86.528 435.754 87.896 436.57 88.76C437.402 89.624 438.57 90.056 440.074 90.056C441.594 90.056 442.762 89.624 443.578 88.76C444.41 87.896 444.826 86.528 444.826 84.656V75.2H447.154V84.752C447.154 87.184 446.522 89.032 445.258 90.296C444.01 91.56 442.274 92.192 440.05 92.192ZM449.179 92L456.787 75.2H459.163L466.795 92H464.275L457.483 76.544H458.443L451.651 92H449.179ZM452.419 87.8L453.067 85.88H462.523L463.219 87.8H452.419ZM469.301 92V75.2H475.853C477.325 75.2 478.581 75.432 479.621 75.896C480.661 76.36 481.461 77.032 482.021 77.912C482.581 78.792 482.861 79.84 482.861 81.056C482.861 82.272 482.581 83.32 482.021 84.2C481.461 85.064 480.661 85.728 479.621 86.192C478.581 86.656 477.325 86.888 475.853 86.888H470.621L471.701 85.784V92H469.301ZM480.533 92L476.261 85.904H478.829L483.149 92H480.533ZM471.701 86.024L470.621 84.848H475.781C477.317 84.848 478.477 84.52 479.261 83.864C480.061 83.192 480.461 82.256 480.461 81.056C480.461 79.856 480.061 78.928 479.261 78.272C478.477 77.616 477.317 77.288 475.781 77.288H470.621L471.701 76.088V86.024ZM489.84 92V77.288H484.08V75.2H497.976V77.288H492.216V92H489.84ZM502.774 82.448H511.414V84.488H502.774V82.448ZM502.99 89.912H512.782V92H500.59V75.2H512.446V77.288H502.99V89.912ZM516.668 92V75.2H523.22C524.692 75.2 525.948 75.432 526.988 75.896C528.028 76.36 528.828 77.032 529.388 77.912C529.948 78.792 530.228 79.84 530.228 81.056C530.228 82.272 529.948 83.32 529.388 84.2C528.828 85.064 528.028 85.728 526.988 86.192C525.948 86.656 524.692 86.888 523.22 86.888H517.988L519.068 85.784V92H516.668ZM527.9 92L523.628 85.904H526.196L530.516 92H527.9ZM519.068 86.024L517.988 84.848H523.148C524.684 84.848 525.844 84.52 526.628 83.864C527.428 83.192 527.828 82.256 527.828 81.056C527.828 79.856 527.428 78.928 526.628 78.272C525.844 77.616 524.684 77.288 523.148 77.288H517.988L519.068 76.088V86.024Z" fill="#FD7D00"/>
<path d="M362.561 96V11.52L368.065 17.536H342.337V6.39999H375.233V96H362.561Z" fill="white"/>
<path d="M546.697 148L531.697 139.34V156.66L546.697 148ZM23.6973 51.5H205.537V48.5H23.6973V51.5ZM228.037 74V124H231.037V74H228.037ZM253.537 149.5H533.197V146.5H253.537V149.5ZM228.037 124C228.037 138.083 239.453 149.5 253.537 149.5V146.5C241.11 146.5 231.037 136.426 231.037 124H228.037ZM205.537 51.5C217.963 51.5 228.037 61.5736 228.037 74H231.037C231.037 59.9167 219.62 48.5 205.537 48.5V51.5Z" fill="#FD7D00"/>
<circle cx="12.6973" cy="50" r="12" fill="#FD7D00"/>
</svg>
