<svg width="547" height="119" viewBox="0 0 547 119" fill="none" xmlns="http://www.w3.org/2000/svg">
<path d="M546.697 110L531.697 101.34V118.66L546.697 110ZM23.6973 13.5H205.537V10.5H23.6973V13.5ZM228.037 36V86H231.037V36H228.037ZM253.537 111.5H533.197V108.5H253.537V111.5ZM228.037 86C228.037 100.083 239.453 111.5 253.537 111.5V108.5C241.11 108.5 231.037 98.4264 231.037 86H228.037ZM205.537 13.5C217.963 13.5 228.037 23.5736 228.037 36H231.037C231.037 21.9167 219.62 10.5 205.537 10.5V13.5Z" fill="#FD7D00"/>
<circle cx="12.6973" cy="12" r="12" fill="#FD7D00"/>
</svg>
