<svg width="370" height="98" viewBox="0 0 370 98" fill="none" xmlns="http://www.w3.org/2000/svg">
<path d="M370 89.0842L355 80.4239V97.7444L370 89.0842ZM15.5859 24.1738H131.074V21.1738H15.5859V24.1738ZM153.574 46.6738V65.0842H156.574V46.6738H153.574ZM179.074 90.5842H356.5V87.5842H179.074V90.5842ZM153.574 65.0842C153.574 79.1675 164.991 90.5842 179.074 90.5842V87.5842C166.648 87.5842 156.574 77.5106 156.574 65.0842H153.574ZM131.074 24.1738C143.501 24.1738 153.574 34.2474 153.574 46.6738H156.574C156.574 32.5906 145.158 21.1738 131.074 21.1738V24.1738Z" fill="#FD7D00"/>
<circle cx="8.13188" cy="22.6739" r="8.13188" fill="#FD7D00"/>
<path d="M246.639 61.686C245.679 61.686 244.785 61.524 243.957 61.2C243.141 60.876 242.433 60.426 241.833 59.85C241.233 59.262 240.765 58.578 240.429 57.798C240.093 57.018 239.925 56.166 239.925 55.242C239.925 54.318 240.093 53.466 240.429 52.686C240.765 51.906 241.233 51.228 241.833 50.652C242.433 50.064 243.141 49.608 243.957 49.284C244.773 48.96 245.667 48.798 246.639 48.798C247.599 48.798 248.481 48.96 249.285 49.284C250.101 49.596 250.809 50.046 251.409 50.634C252.021 51.21 252.489 51.888 252.813 52.668C253.149 53.448 253.317 54.306 253.317 55.242C253.317 56.178 253.149 57.036 252.813 57.816C252.489 58.596 252.021 59.28 251.409 59.868C250.809 60.444 250.101 60.894 249.285 61.218C248.481 61.53 247.599 61.686 246.639 61.686ZM250.761 64.17C250.341 64.17 249.939 64.116 249.555 64.008C249.171 63.912 248.787 63.75 248.403 63.522C248.019 63.306 247.623 63.018 247.215 62.658C246.807 62.31 246.363 61.878 245.883 61.362L247.809 60.858C248.169 61.302 248.511 61.662 248.835 61.938C249.171 62.226 249.501 62.43 249.825 62.55C250.149 62.682 250.467 62.748 250.779 62.748C251.679 62.748 252.447 62.388 253.083 61.668L253.929 62.694C253.113 63.678 252.057 64.17 250.761 64.17ZM246.639 60.084C247.335 60.084 247.977 59.964 248.565 59.724C249.165 59.484 249.681 59.142 250.113 58.698C250.557 58.254 250.899 57.738 251.139 57.15C251.391 56.562 251.517 55.926 251.517 55.242C251.517 54.546 251.391 53.904 251.139 53.316C250.899 52.728 250.557 52.218 250.113 51.786C249.681 51.342 249.165 51 248.565 50.76C247.977 50.52 247.335 50.4 246.639 50.4C245.931 50.4 245.277 50.52 244.677 50.76C244.089 51 243.573 51.342 243.129 51.786C242.685 52.218 242.337 52.728 242.085 53.316C241.845 53.904 241.725 54.546 241.725 55.242C241.725 55.926 241.845 56.562 242.085 57.15C242.337 57.738 242.685 58.254 243.129 58.698C243.573 59.142 244.089 59.484 244.677 59.724C245.277 59.964 245.931 60.084 246.639 60.084ZM261.288 61.686C259.632 61.686 258.33 61.212 257.382 60.264C256.434 59.316 255.96 57.93 255.96 56.106V48.942H257.76V56.034C257.76 57.438 258.066 58.464 258.678 59.112C259.302 59.76 260.178 60.084 261.306 60.084C262.446 60.084 263.322 59.76 263.934 59.112C264.558 58.464 264.87 57.438 264.87 56.034V48.942H266.616V56.106C266.616 57.93 266.142 59.316 265.194 60.264C264.258 61.212 262.956 61.686 261.288 61.686ZM268.134 61.542L273.84 48.942H275.622L281.346 61.542H279.456L274.362 49.95H275.082L269.988 61.542H268.134ZM270.564 58.392L271.05 56.952H278.142L278.664 58.392H270.564ZM283.226 61.542V48.942H288.14C289.244 48.942 290.186 49.116 290.966 49.464C291.746 49.812 292.346 50.316 292.766 50.976C293.186 51.636 293.396 52.422 293.396 53.334C293.396 54.246 293.186 55.032 292.766 55.692C292.346 56.34 291.746 56.838 290.966 57.186C290.186 57.534 289.244 57.708 288.14 57.708H284.216L285.026 56.88V61.542H283.226ZM291.65 61.542L288.446 56.97H290.372L293.612 61.542H291.65ZM285.026 57.06L284.216 56.178H288.086C289.238 56.178 290.108 55.932 290.696 55.44C291.296 54.936 291.596 54.234 291.596 53.334C291.596 52.434 291.296 51.738 290.696 51.246C290.108 50.754 289.238 50.508 288.086 50.508H284.216L285.026 49.608V57.06ZM298.63 61.542V50.508H294.31V48.942H304.732V50.508H300.412V61.542H298.63ZM308.331 54.378H314.811V55.908H308.331V54.378ZM308.493 59.976H315.837V61.542H306.693V48.942H315.585V50.508H308.493V59.976ZM318.751 61.542V48.942H323.665C324.769 48.942 325.711 49.116 326.491 49.464C327.271 49.812 327.871 50.316 328.291 50.976C328.711 51.636 328.921 52.422 328.921 53.334C328.921 54.246 328.711 55.032 328.291 55.692C327.871 56.34 327.271 56.838 326.491 57.186C325.711 57.534 324.769 57.708 323.665 57.708H319.741L320.551 56.88V61.542H318.751ZM327.175 61.542L323.971 56.97H325.897L329.137 61.542H327.175ZM320.551 57.06L319.741 56.178H323.611C324.763 56.178 325.633 55.932 326.221 55.44C326.821 54.936 327.121 54.234 327.121 53.334C327.121 52.434 326.821 51.738 326.221 51.246C325.633 50.754 324.763 50.508 323.611 50.508H319.741L320.551 49.608V57.06Z" fill="#FD7D00"/>
<path d="M185.023 64.542V59.102L207.823 37.102C209.849 35.182 211.343 33.502 212.303 32.062C213.316 30.5687 213.983 29.2087 214.303 27.982C214.676 26.702 214.863 25.4753 214.863 24.302C214.863 21.422 213.849 19.1553 211.823 17.502C209.796 15.8487 206.836 15.022 202.943 15.022C199.956 15.022 197.263 15.5287 194.863 16.542C192.463 17.502 190.383 19.022 188.623 21.102L183.183 16.382C185.316 13.662 188.169 11.582 191.743 10.142C195.369 8.64866 199.343 7.90199 203.663 7.90199C207.556 7.90199 210.943 8.54199 213.823 9.82199C216.703 11.0487 218.916 12.8353 220.463 15.182C222.063 17.5287 222.863 20.302 222.863 23.502C222.863 25.3153 222.623 27.102 222.143 28.862C221.663 30.622 220.756 32.4887 219.423 34.462C218.089 36.4353 216.169 38.6487 213.663 41.102L193.343 60.702L191.423 57.582H225.263V64.542H185.023Z" fill="white"/>
</svg>
