<svg width="494" height="285" viewBox="0 0 494 285" fill="none" xmlns="http://www.w3.org/2000/svg">
<g filter="url(#filter0_b_876_314)">
<rect x="0.697266" width="493" height="285" rx="35" fill="white" fill-opacity="0.03"/>
<path d="M56.9926 117V103H58.9926V115.26H66.5726V117H56.9926ZM72.9909 117.12C71.9242 117.12 70.9775 116.887 70.1509 116.42C69.3242 115.953 68.6709 115.313 68.1909 114.5C67.7109 113.673 67.4709 112.74 67.4709 111.7C67.4709 110.647 67.7109 109.713 68.1909 108.9C68.6709 108.087 69.3242 107.453 70.1509 107C70.9775 106.533 71.9242 106.3 72.9909 106.3C74.0442 106.3 74.9842 106.533 75.8109 107C76.6509 107.453 77.3042 108.087 77.7709 108.9C78.2509 109.7 78.4909 110.633 78.4909 111.7C78.4909 112.753 78.2509 113.687 77.7709 114.5C77.3042 115.313 76.6509 115.953 75.8109 116.42C74.9842 116.887 74.0442 117.12 72.9909 117.12ZM72.9909 115.44C73.6709 115.44 74.2775 115.287 74.8109 114.98C75.3575 114.673 75.7842 114.24 76.0909 113.68C76.3975 113.107 76.5509 112.447 76.5509 111.7C76.5509 110.94 76.3975 110.287 76.0909 109.74C75.7842 109.18 75.3575 108.747 74.8109 108.44C74.2775 108.133 73.6709 107.98 72.9909 107.98C72.3109 107.98 71.7042 108.133 71.1709 108.44C70.6375 108.747 70.2109 109.18 69.8909 109.74C69.5709 110.287 69.4109 110.94 69.4109 111.7C69.4109 112.447 69.5709 113.107 69.8909 113.68C70.2109 114.24 70.6375 114.673 71.1709 114.98C71.7042 115.287 72.3109 115.44 72.9909 115.44ZM81.1462 117V106.4H82.9862V109.28L82.8062 108.56C83.0995 107.827 83.5928 107.267 84.2862 106.88C84.9795 106.493 85.8328 106.3 86.8462 106.3V108.16C86.7662 108.147 86.6862 108.14 86.6062 108.14C86.5395 108.14 86.4728 108.14 86.4062 108.14C85.3795 108.14 84.5662 108.447 83.9662 109.06C83.3662 109.673 83.0662 110.56 83.0662 111.72V117H81.1462ZM93.8349 117.12C92.7016 117.12 91.7016 116.887 90.8349 116.42C89.9816 115.953 89.3149 115.313 88.8349 114.5C88.3683 113.687 88.1349 112.753 88.1349 111.7C88.1349 110.647 88.3616 109.713 88.8149 108.9C89.2816 108.087 89.9149 107.453 90.7149 107C91.5283 106.533 92.4416 106.3 93.4549 106.3C94.4816 106.3 95.3883 106.527 96.1749 106.98C96.9616 107.433 97.5749 108.073 98.0149 108.9C98.4683 109.713 98.6949 110.667 98.6949 111.76C98.6949 111.84 98.6883 111.933 98.6749 112.04C98.6749 112.147 98.6683 112.247 98.6549 112.34H89.6349V110.96H97.6549L96.8749 111.44C96.8883 110.76 96.7483 110.153 96.4549 109.62C96.1616 109.087 95.7549 108.673 95.2349 108.38C94.7283 108.073 94.1349 107.92 93.4549 107.92C92.7883 107.92 92.1949 108.073 91.6749 108.38C91.1549 108.673 90.7483 109.093 90.4549 109.64C90.1616 110.173 90.0149 110.787 90.0149 111.48V111.8C90.0149 112.507 90.1749 113.14 90.4949 113.7C90.8283 114.247 91.2883 114.673 91.8749 114.98C92.4616 115.287 93.1349 115.44 93.8949 115.44C94.5216 115.44 95.0883 115.333 95.5949 115.12C96.1149 114.907 96.5683 114.587 96.9549 114.16L98.0149 115.4C97.5349 115.96 96.9349 116.387 96.2149 116.68C95.5083 116.973 94.7149 117.12 93.8349 117.12ZM114.621 106.3C115.474 106.3 116.228 106.467 116.881 106.8C117.534 107.133 118.041 107.64 118.401 108.32C118.774 109 118.961 109.86 118.961 110.9V117H117.041V111.12C117.041 110.093 116.801 109.32 116.321 108.8C115.841 108.28 115.168 108.02 114.301 108.02C113.661 108.02 113.101 108.153 112.621 108.42C112.141 108.687 111.768 109.08 111.501 109.6C111.248 110.12 111.121 110.767 111.121 111.54V117H109.201V111.12C109.201 110.093 108.961 109.32 108.481 108.8C108.014 108.28 107.341 108.02 106.461 108.02C105.834 108.02 105.281 108.153 104.801 108.42C104.321 108.687 103.948 109.08 103.681 109.6C103.414 110.12 103.281 110.767 103.281 111.54V117H101.361V106.4H103.201V109.22L102.901 108.5C103.234 107.807 103.748 107.267 104.441 106.88C105.134 106.493 105.941 106.3 106.861 106.3C107.874 106.3 108.748 106.553 109.481 107.06C110.214 107.553 110.694 108.307 110.921 109.32L110.141 109C110.461 108.187 111.021 107.533 111.821 107.04C112.621 106.547 113.554 106.3 114.621 106.3ZM128.145 117V103H130.145V117H128.145ZM139.676 117.12C138.796 117.12 137.99 116.92 137.256 116.52C136.536 116.107 135.956 115.5 135.516 114.7C135.09 113.9 134.876 112.9 134.876 111.7C134.876 110.5 135.083 109.5 135.496 108.7C135.923 107.9 136.496 107.3 137.216 106.9C137.95 106.5 138.77 106.3 139.676 106.3C140.716 106.3 141.636 106.527 142.436 106.98C143.236 107.433 143.87 108.067 144.336 108.88C144.803 109.68 145.036 110.62 145.036 111.7C145.036 112.78 144.803 113.727 144.336 114.54C143.87 115.353 143.236 115.987 142.436 116.44C141.636 116.893 140.716 117.12 139.676 117.12ZM134.056 120.88V106.4H135.896V109.26L135.776 111.72L135.976 114.18V120.88H134.056ZM139.516 115.44C140.196 115.44 140.803 115.287 141.336 114.98C141.883 114.673 142.31 114.24 142.616 113.68C142.936 113.107 143.096 112.447 143.096 111.7C143.096 110.94 142.936 110.287 142.616 109.74C142.31 109.18 141.883 108.747 141.336 108.44C140.803 108.133 140.196 107.98 139.516 107.98C138.85 107.98 138.243 108.133 137.696 108.44C137.163 108.747 136.736 109.18 136.416 109.74C136.11 110.287 135.956 110.94 135.956 111.7C135.956 112.447 136.11 113.107 136.416 113.68C136.736 114.24 137.163 114.673 137.696 114.98C138.243 115.287 138.85 115.44 139.516 115.44ZM150.729 117.12C149.849 117.12 149.009 117 148.209 116.76C147.422 116.52 146.802 116.227 146.349 115.88L147.149 114.36C147.602 114.667 148.162 114.927 148.829 115.14C149.496 115.353 150.176 115.46 150.869 115.46C151.762 115.46 152.402 115.333 152.789 115.08C153.189 114.827 153.389 114.473 153.389 114.02C153.389 113.687 153.269 113.427 153.029 113.24C152.789 113.053 152.469 112.913 152.069 112.82C151.682 112.727 151.249 112.647 150.769 112.58C150.289 112.5 149.809 112.407 149.329 112.3C148.849 112.18 148.409 112.02 148.009 111.82C147.609 111.607 147.289 111.32 147.049 110.96C146.809 110.587 146.689 110.093 146.689 109.48C146.689 108.84 146.869 108.28 147.229 107.8C147.589 107.32 148.096 106.953 148.749 106.7C149.416 106.433 150.202 106.3 151.109 106.3C151.802 106.3 152.502 106.387 153.209 106.56C153.929 106.72 154.516 106.953 154.969 107.26L154.149 108.78C153.669 108.46 153.169 108.24 152.649 108.12C152.129 108 151.609 107.94 151.089 107.94C150.249 107.94 149.622 108.08 149.209 108.36C148.796 108.627 148.589 108.973 148.589 109.4C148.589 109.76 148.709 110.04 148.949 110.24C149.202 110.427 149.522 110.573 149.909 110.68C150.309 110.787 150.749 110.88 151.229 110.96C151.709 111.027 152.189 111.12 152.669 111.24C153.149 111.347 153.582 111.5 153.969 111.7C154.369 111.9 154.689 112.18 154.929 112.54C155.182 112.9 155.309 113.38 155.309 113.98C155.309 114.62 155.122 115.173 154.749 115.64C154.376 116.107 153.849 116.473 153.169 116.74C152.489 116.993 151.676 117.12 150.729 117.12ZM162.169 117.12C161.262 117.12 160.462 116.953 159.769 116.62C159.089 116.287 158.555 115.78 158.169 115.1C157.795 114.407 157.609 113.54 157.609 112.5V106.4H159.529V112.28C159.529 113.32 159.775 114.1 160.269 114.62C160.775 115.14 161.482 115.4 162.389 115.4C163.055 115.4 163.635 115.267 164.129 115C164.622 114.72 165.002 114.32 165.269 113.8C165.535 113.267 165.669 112.627 165.669 111.88V106.4H167.589V117H165.769V114.14L166.069 114.9C165.722 115.607 165.202 116.153 164.509 116.54C163.815 116.927 163.035 117.12 162.169 117.12ZM184.504 106.3C185.357 106.3 186.11 106.467 186.764 106.8C187.417 107.133 187.924 107.64 188.284 108.32C188.657 109 188.844 109.86 188.844 110.9V117H186.924V111.12C186.924 110.093 186.684 109.32 186.204 108.8C185.724 108.28 185.05 108.02 184.184 108.02C183.544 108.02 182.984 108.153 182.504 108.42C182.024 108.687 181.65 109.08 181.384 109.6C181.13 110.12 181.004 110.767 181.004 111.54V117H179.084V111.12C179.084 110.093 178.844 109.32 178.364 108.8C177.897 108.28 177.224 108.02 176.344 108.02C175.717 108.02 175.164 108.153 174.684 108.42C174.204 108.687 173.83 109.08 173.564 109.6C173.297 110.12 173.164 110.767 173.164 111.54V117H171.244V106.4H173.084V109.22L172.784 108.5C173.117 107.807 173.63 107.267 174.324 106.88C175.017 106.493 175.824 106.3 176.744 106.3C177.757 106.3 178.63 106.553 179.364 107.06C180.097 107.553 180.577 108.307 180.804 109.32L180.024 109C180.344 108.187 180.904 107.533 181.704 107.04C182.504 106.547 183.437 106.3 184.504 106.3ZM197.748 117V106.4H199.668V117H197.748ZM198.708 104.36C198.334 104.36 198.021 104.24 197.768 104C197.528 103.76 197.408 103.467 197.408 103.12C197.408 102.76 197.528 102.46 197.768 102.22C198.021 101.98 198.334 101.86 198.708 101.86C199.081 101.86 199.388 101.98 199.628 102.22C199.881 102.447 200.008 102.733 200.008 103.08C200.008 103.44 199.888 103.747 199.648 104C199.408 104.24 199.094 104.36 198.708 104.36ZM206.374 117.12C205.494 117.12 204.654 117 203.854 116.76C203.067 116.52 202.447 116.227 201.994 115.88L202.794 114.36C203.247 114.667 203.807 114.927 204.474 115.14C205.14 115.353 205.82 115.46 206.514 115.46C207.407 115.46 208.047 115.333 208.434 115.08C208.834 114.827 209.034 114.473 209.034 114.02C209.034 113.687 208.914 113.427 208.674 113.24C208.434 113.053 208.114 112.913 207.714 112.82C207.327 112.727 206.894 112.647 206.414 112.58C205.934 112.5 205.454 112.407 204.974 112.3C204.494 112.18 204.054 112.02 203.654 111.82C203.254 111.607 202.934 111.32 202.694 110.96C202.454 110.587 202.334 110.093 202.334 109.48C202.334 108.84 202.514 108.28 202.874 107.8C203.234 107.32 203.74 106.953 204.394 106.7C205.06 106.433 205.847 106.3 206.754 106.3C207.447 106.3 208.147 106.387 208.854 106.56C209.574 106.72 210.16 106.953 210.614 107.26L209.794 108.78C209.314 108.46 208.814 108.24 208.294 108.12C207.774 108 207.254 107.94 206.734 107.94C205.894 107.94 205.267 108.08 204.854 108.36C204.44 108.627 204.234 108.973 204.234 109.4C204.234 109.76 204.354 110.04 204.594 110.24C204.847 110.427 205.167 110.573 205.554 110.68C205.954 110.787 206.394 110.88 206.874 110.96C207.354 111.027 207.834 111.12 208.314 111.24C208.794 111.347 209.227 111.5 209.614 111.7C210.014 111.9 210.334 112.18 210.574 112.54C210.827 112.9 210.954 113.38 210.954 113.98C210.954 114.62 210.767 115.173 210.394 115.64C210.02 116.107 209.494 116.473 208.814 116.74C208.134 116.993 207.32 117.12 206.374 117.12ZM221.764 117.12C220.884 117.12 220.044 117 219.244 116.76C218.458 116.52 217.838 116.227 217.384 115.88L218.184 114.36C218.638 114.667 219.198 114.927 219.864 115.14C220.531 115.353 221.211 115.46 221.904 115.46C222.798 115.46 223.438 115.333 223.824 115.08C224.224 114.827 224.424 114.473 224.424 114.02C224.424 113.687 224.304 113.427 224.064 113.24C223.824 113.053 223.504 112.913 223.104 112.82C222.718 112.727 222.284 112.647 221.804 112.58C221.324 112.5 220.844 112.407 220.364 112.3C219.884 112.18 219.444 112.02 219.044 111.82C218.644 111.607 218.324 111.32 218.084 110.96C217.844 110.587 217.724 110.093 217.724 109.48C217.724 108.84 217.904 108.28 218.264 107.8C218.624 107.32 219.131 106.953 219.784 106.7C220.451 106.433 221.238 106.3 222.144 106.3C222.838 106.3 223.538 106.387 224.244 106.56C224.964 106.72 225.551 106.953 226.004 107.26L225.184 108.78C224.704 108.46 224.204 108.24 223.684 108.12C223.164 108 222.644 107.94 222.124 107.94C221.284 107.94 220.658 108.08 220.244 108.36C219.831 108.627 219.624 108.973 219.624 109.4C219.624 109.76 219.744 110.04 219.984 110.24C220.238 110.427 220.558 110.573 220.944 110.68C221.344 110.787 221.784 110.88 222.264 110.96C222.744 111.027 223.224 111.12 223.704 111.24C224.184 111.347 224.618 111.5 225.004 111.7C225.404 111.9 225.724 112.18 225.964 112.54C226.218 112.9 226.344 113.38 226.344 113.98C226.344 114.62 226.158 115.173 225.784 115.64C225.411 116.107 224.884 116.473 224.204 116.74C223.524 116.993 222.711 117.12 221.764 117.12ZM228.744 117V106.4H230.664V117H228.744ZM229.704 104.36C229.33 104.36 229.017 104.24 228.764 104C228.524 103.76 228.404 103.467 228.404 103.12C228.404 102.76 228.524 102.46 228.764 102.22C229.017 101.98 229.33 101.86 229.704 101.86C230.077 101.86 230.384 101.98 230.624 102.22C230.877 102.447 231.004 102.733 231.004 103.08C231.004 103.44 230.884 103.747 230.644 104C230.404 104.24 230.09 104.36 229.704 104.36ZM247.59 106.3C248.443 106.3 249.196 106.467 249.85 106.8C250.503 107.133 251.01 107.64 251.37 108.32C251.743 109 251.93 109.86 251.93 110.9V117H250.01V111.12C250.01 110.093 249.77 109.32 249.29 108.8C248.81 108.28 248.136 108.02 247.27 108.02C246.63 108.02 246.07 108.153 245.59 108.42C245.11 108.687 244.736 109.08 244.47 109.6C244.216 110.12 244.09 110.767 244.09 111.54V117H242.17V111.12C242.17 110.093 241.93 109.32 241.45 108.8C240.983 108.28 240.31 108.02 239.43 108.02C238.803 108.02 238.25 108.153 237.77 108.42C237.29 108.687 236.916 109.08 236.65 109.6C236.383 110.12 236.25 110.767 236.25 111.54V117H234.33V106.4H236.17V109.22L235.87 108.5C236.203 107.807 236.716 107.267 237.41 106.88C238.103 106.493 238.91 106.3 239.83 106.3C240.843 106.3 241.716 106.553 242.45 107.06C243.183 107.553 243.663 108.307 243.89 109.32L243.11 109C243.43 108.187 243.99 107.533 244.79 107.04C245.59 106.547 246.523 106.3 247.59 106.3ZM261.083 117.12C260.203 117.12 259.396 116.92 258.663 116.52C257.943 116.107 257.363 115.5 256.923 114.7C256.496 113.9 256.283 112.9 256.283 111.7C256.283 110.5 256.489 109.5 256.903 108.7C257.329 107.9 257.903 107.3 258.623 106.9C259.356 106.5 260.176 106.3 261.083 106.3C262.123 106.3 263.043 106.527 263.843 106.98C264.643 107.433 265.276 108.067 265.743 108.88C266.209 109.68 266.443 110.62 266.443 111.7C266.443 112.78 266.209 113.727 265.743 114.54C265.276 115.353 264.643 115.987 263.843 116.44C263.043 116.893 262.123 117.12 261.083 117.12ZM255.463 120.88V106.4H257.303V109.26L257.183 111.72L257.383 114.18V120.88H255.463ZM260.923 115.44C261.603 115.44 262.209 115.287 262.743 114.98C263.289 114.673 263.716 114.24 264.023 113.68C264.343 113.107 264.503 112.447 264.503 111.7C264.503 110.94 264.343 110.287 264.023 109.74C263.716 109.18 263.289 108.747 262.743 108.44C262.209 108.133 261.603 107.98 260.923 107.98C260.256 107.98 259.649 108.133 259.103 108.44C258.569 108.747 258.143 109.18 257.823 109.74C257.516 110.287 257.363 110.94 257.363 111.7C257.363 112.447 257.516 113.107 257.823 113.68C258.143 114.24 258.569 114.673 259.103 114.98C259.649 115.287 260.256 115.44 260.923 115.44ZM269.095 117V102.16H271.015V117H269.095ZM275.141 121C274.635 121 274.141 120.913 273.661 120.74C273.181 120.58 272.768 120.34 272.421 120.02L273.241 118.58C273.508 118.833 273.801 119.027 274.121 119.16C274.441 119.293 274.781 119.36 275.141 119.36C275.608 119.36 275.995 119.24 276.301 119C276.608 118.76 276.895 118.333 277.161 117.72L277.821 116.26L278.021 116.02L282.181 106.4H284.061L278.921 118.06C278.615 118.807 278.268 119.393 277.881 119.82C277.508 120.247 277.095 120.547 276.641 120.72C276.188 120.907 275.688 121 275.141 121ZM277.661 117.34L272.821 106.4H274.821L278.941 115.84L277.661 117.34ZM295.604 117.12C294.578 117.12 293.658 116.893 292.844 116.44C292.044 115.987 291.411 115.353 290.944 114.54C290.478 113.727 290.244 112.78 290.244 111.7C290.244 110.62 290.478 109.68 290.944 108.88C291.411 108.067 292.044 107.433 292.844 106.98C293.658 106.527 294.578 106.3 295.604 106.3C296.498 106.3 297.304 106.5 298.024 106.9C298.744 107.3 299.318 107.9 299.744 108.7C300.184 109.5 300.404 110.5 300.404 111.7C300.404 112.9 300.191 113.9 299.764 114.7C299.351 115.5 298.784 116.107 298.064 116.52C297.344 116.92 296.524 117.12 295.604 117.12ZM295.764 115.44C296.431 115.44 297.031 115.287 297.564 114.98C298.111 114.673 298.538 114.24 298.844 113.68C299.164 113.107 299.324 112.447 299.324 111.7C299.324 110.94 299.164 110.287 298.844 109.74C298.538 109.18 298.111 108.747 297.564 108.44C297.031 108.133 296.431 107.98 295.764 107.98C295.084 107.98 294.478 108.133 293.944 108.44C293.411 108.747 292.984 109.18 292.664 109.74C292.344 110.287 292.184 110.94 292.184 111.7C292.184 112.447 292.344 113.107 292.664 113.68C292.984 114.24 293.411 114.673 293.944 114.98C294.478 115.287 295.084 115.44 295.764 115.44ZM299.384 117V114.14L299.504 111.68L299.304 109.22V102.16H301.224V117H299.384ZM309.317 117.12C308.41 117.12 307.61 116.953 306.917 116.62C306.237 116.287 305.704 115.78 305.317 115.1C304.944 114.407 304.757 113.54 304.757 112.5V106.4H306.677V112.28C306.677 113.32 306.924 114.1 307.417 114.62C307.924 115.14 308.63 115.4 309.537 115.4C310.204 115.4 310.784 115.267 311.277 115C311.77 114.72 312.15 114.32 312.417 113.8C312.684 113.267 312.817 112.627 312.817 111.88V106.4H314.737V117H312.917V114.14L313.217 114.9C312.87 115.607 312.35 116.153 311.657 116.54C310.964 116.927 310.184 117.12 309.317 117.12ZM331.652 106.3C332.506 106.3 333.259 106.467 333.912 106.8C334.566 107.133 335.072 107.64 335.432 108.32C335.806 109 335.992 109.86 335.992 110.9V117H334.072V111.12C334.072 110.093 333.832 109.32 333.352 108.8C332.872 108.28 332.199 108.02 331.332 108.02C330.692 108.02 330.132 108.153 329.652 108.42C329.172 108.687 328.799 109.08 328.532 109.6C328.279 110.12 328.152 110.767 328.152 111.54V117H326.232V111.12C326.232 110.093 325.992 109.32 325.512 108.8C325.046 108.28 324.372 108.02 323.492 108.02C322.866 108.02 322.312 108.153 321.832 108.42C321.352 108.687 320.979 109.08 320.712 109.6C320.446 110.12 320.312 110.767 320.312 111.54V117H318.392V106.4H320.232V109.22L319.932 108.5C320.266 107.807 320.779 107.267 321.472 106.88C322.166 106.493 322.972 106.3 323.892 106.3C324.906 106.3 325.779 106.553 326.512 107.06C327.246 107.553 327.726 108.307 327.952 109.32L327.172 109C327.492 108.187 328.052 107.533 328.852 107.04C329.652 106.547 330.586 106.3 331.652 106.3ZM352.785 106.3C353.638 106.3 354.392 106.467 355.045 106.8C355.698 107.133 356.205 107.64 356.565 108.32C356.938 109 357.125 109.86 357.125 110.9V117H355.205V111.12C355.205 110.093 354.965 109.32 354.485 108.8C354.005 108.28 353.332 108.02 352.465 108.02C351.825 108.02 351.265 108.153 350.785 108.42C350.305 108.687 349.932 109.08 349.665 109.6C349.412 110.12 349.285 110.767 349.285 111.54V117H347.365V111.12C347.365 110.093 347.125 109.32 346.645 108.8C346.178 108.28 345.505 108.02 344.625 108.02C343.998 108.02 343.445 108.153 342.965 108.42C342.485 108.687 342.112 109.08 341.845 109.6C341.578 110.12 341.445 110.767 341.445 111.54V117H339.525V106.4H341.365V109.22L341.065 108.5C341.398 107.807 341.912 107.267 342.605 106.88C343.298 106.493 344.105 106.3 345.025 106.3C346.038 106.3 346.912 106.553 347.645 107.06C348.378 107.553 348.858 108.307 349.085 109.32L348.305 109C348.625 108.187 349.185 107.533 349.985 107.04C350.785 106.547 351.718 106.3 352.785 106.3ZM360.923 121C360.416 121 359.923 120.913 359.443 120.74C358.963 120.58 358.549 120.34 358.203 120.02L359.023 118.58C359.289 118.833 359.583 119.027 359.903 119.16C360.223 119.293 360.563 119.36 360.923 119.36C361.389 119.36 361.776 119.24 362.083 119C362.389 118.76 362.676 118.333 362.943 117.72L363.603 116.26L363.803 116.02L367.963 106.4H369.843L364.703 118.06C364.396 118.807 364.049 119.393 363.663 119.82C363.289 120.247 362.876 120.547 362.423 120.72C361.969 120.907 361.469 121 360.923 121ZM363.443 117.34L358.603 106.4H360.603L364.723 115.84L363.443 117.34ZM380.646 117.12C379.579 117.12 378.752 116.833 378.166 116.26C377.579 115.687 377.286 114.867 377.286 113.8V104.08H379.206V113.72C379.206 114.293 379.346 114.733 379.626 115.04C379.919 115.347 380.332 115.5 380.866 115.5C381.466 115.5 381.966 115.333 382.366 115L382.966 116.38C382.672 116.633 382.319 116.82 381.906 116.94C381.506 117.06 381.086 117.12 380.646 117.12ZM375.486 107.98V106.4H382.246V107.98H375.486ZM389.655 117.12C388.522 117.12 387.522 116.887 386.655 116.42C385.802 115.953 385.135 115.313 384.655 114.5C384.189 113.687 383.955 112.753 383.955 111.7C383.955 110.647 384.182 109.713 384.635 108.9C385.102 108.087 385.735 107.453 386.535 107C387.349 106.533 388.262 106.3 389.275 106.3C390.302 106.3 391.209 106.527 391.995 106.98C392.782 107.433 393.395 108.073 393.835 108.9C394.289 109.713 394.515 110.667 394.515 111.76C394.515 111.84 394.509 111.933 394.495 112.04C394.495 112.147 394.489 112.247 394.475 112.34H385.455V110.96H393.475L392.695 111.44C392.709 110.76 392.569 110.153 392.275 109.62C391.982 109.087 391.575 108.673 391.055 108.38C390.549 108.073 389.955 107.92 389.275 107.92C388.609 107.92 388.015 108.073 387.495 108.38C386.975 108.673 386.569 109.093 386.275 109.64C385.982 110.173 385.835 110.787 385.835 111.48V111.8C385.835 112.507 385.995 113.14 386.315 113.7C386.649 114.247 387.109 114.673 387.695 114.98C388.282 115.287 388.955 115.44 389.715 115.44C390.342 115.44 390.909 115.333 391.415 115.12C391.935 114.907 392.389 114.587 392.775 114.16L393.835 115.4C393.355 115.96 392.755 116.387 392.035 116.68C391.329 116.973 390.535 117.12 389.655 117.12ZM395.348 117L399.908 111.08L399.888 112.06L395.548 106.4H397.688L401.008 110.76H400.188L403.508 106.4H405.608L401.208 112.1L401.228 111.08L405.828 117H403.648L400.148 112.36L400.928 112.48L397.488 117H395.348ZM411.564 117.12C410.497 117.12 409.67 116.833 409.084 116.26C408.497 115.687 408.204 114.867 408.204 113.8V104.08H410.124V113.72C410.124 114.293 410.264 114.733 410.544 115.04C410.837 115.347 411.25 115.5 411.784 115.5C412.384 115.5 412.884 115.333 413.284 115L413.884 116.38C413.59 116.633 413.237 116.82 412.824 116.94C412.424 117.06 412.004 117.12 411.564 117.12ZM406.404 107.98V106.4H413.164V107.98H406.404ZM426.116 117.12C425.049 117.12 424.103 116.887 423.276 116.42C422.449 115.953 421.796 115.313 421.316 114.5C420.836 113.673 420.596 112.74 420.596 111.7C420.596 110.647 420.836 109.713 421.316 108.9C421.796 108.087 422.449 107.453 423.276 107C424.103 106.533 425.049 106.3 426.116 106.3C427.169 106.3 428.109 106.533 428.936 107C429.776 107.453 430.429 108.087 430.896 108.9C431.376 109.7 431.616 110.633 431.616 111.7C431.616 112.753 431.376 113.687 430.896 114.5C430.429 115.313 429.776 115.953 428.936 116.42C428.109 116.887 427.169 117.12 426.116 117.12ZM426.116 115.44C426.796 115.44 427.403 115.287 427.936 114.98C428.483 114.673 428.909 114.24 429.216 113.68C429.523 113.107 429.676 112.447 429.676 111.7C429.676 110.94 429.523 110.287 429.216 109.74C428.909 109.18 428.483 108.747 427.936 108.44C427.403 108.133 426.796 107.98 426.116 107.98C425.436 107.98 424.829 108.133 424.296 108.44C423.763 108.747 423.336 109.18 423.016 109.74C422.696 110.287 422.536 110.94 422.536 111.7C422.536 112.447 422.696 113.107 423.016 113.68C423.336 114.24 423.763 114.673 424.296 114.98C424.829 115.287 425.436 115.44 426.116 115.44ZM434.551 117V105.46C434.551 104.42 434.851 103.593 435.451 102.98C436.065 102.353 436.931 102.04 438.051 102.04C438.465 102.04 438.858 102.093 439.231 102.2C439.618 102.293 439.945 102.447 440.211 102.66L439.631 104.12C439.431 103.96 439.205 103.84 438.951 103.76C438.698 103.667 438.431 103.62 438.151 103.62C437.591 103.62 437.165 103.78 436.871 104.1C436.578 104.407 436.431 104.867 436.431 105.48V106.9L436.471 107.78V117H434.551ZM432.751 107.98V106.4H439.511V107.98H432.751ZM61.6905 150.12C60.6238 150.12 59.7971 149.833 59.2105 149.26C58.6238 148.687 58.3305 147.867 58.3305 146.8V137.08H60.2505V146.72C60.2505 147.293 60.3905 147.733 60.6705 148.04C60.9638 148.347 61.3771 148.5 61.9105 148.5C62.5105 148.5 63.0105 148.333 63.4105 148L64.0105 149.38C63.7171 149.633 63.3638 149.82 62.9505 149.94C62.5505 150.06 62.1305 150.12 61.6905 150.12ZM56.5305 140.98V139.4H63.2905V140.98H56.5305ZM71.9917 139.3C72.8584 139.3 73.6184 139.467 74.2717 139.8C74.9384 140.133 75.4584 140.64 75.8317 141.32C76.2051 142 76.3917 142.86 76.3917 143.9V150H74.4717V144.12C74.4717 143.093 74.2184 142.32 73.7117 141.8C73.2184 141.28 72.5184 141.02 71.6117 141.02C70.9317 141.02 70.3384 141.153 69.8317 141.42C69.3251 141.687 68.9317 142.08 68.6517 142.6C68.3851 143.12 68.2517 143.767 68.2517 144.54V150H66.3317V135.16H68.2517V142.26L67.8717 141.5C68.2184 140.807 68.7517 140.267 69.4717 139.88C70.1917 139.493 71.0317 139.3 71.9917 139.3ZM84.665 150.12C83.5317 150.12 82.5317 149.887 81.665 149.42C80.8117 148.953 80.145 148.313 79.665 147.5C79.1983 146.687 78.965 145.753 78.965 144.7C78.965 143.647 79.1917 142.713 79.645 141.9C80.1117 141.087 80.745 140.453 81.545 140C82.3583 139.533 83.2717 139.3 84.285 139.3C85.3117 139.3 86.2183 139.527 87.005 139.98C87.7917 140.433 88.405 141.073 88.845 141.9C89.2983 142.713 89.525 143.667 89.525 144.76C89.525 144.84 89.5183 144.933 89.505 145.04C89.505 145.147 89.4983 145.247 89.485 145.34H80.465V143.96H88.485L87.705 144.44C87.7183 143.76 87.5783 143.153 87.285 142.62C86.9917 142.087 86.585 141.673 86.065 141.38C85.5583 141.073 84.965 140.92 84.285 140.92C83.6183 140.92 83.025 141.073 82.505 141.38C81.985 141.673 81.5783 142.093 81.285 142.64C80.9917 143.173 80.845 143.787 80.845 144.48V144.8C80.845 145.507 81.005 146.14 81.325 146.7C81.6583 147.247 82.1183 147.673 82.705 147.98C83.2917 148.287 83.965 148.44 84.725 148.44C85.3517 148.44 85.9183 148.333 86.425 148.12C86.945 147.907 87.3983 147.587 87.785 147.16L88.845 148.4C88.365 148.96 87.765 149.387 87.045 149.68C86.3383 149.973 85.545 150.12 84.665 150.12ZM103.182 150.12C102.302 150.12 101.496 149.92 100.762 149.52C100.042 149.107 99.4622 148.5 99.0222 147.7C98.5955 146.9 98.3822 145.9 98.3822 144.7C98.3822 143.5 98.5889 142.5 99.0022 141.7C99.4289 140.9 100.002 140.3 100.722 139.9C101.456 139.5 102.276 139.3 103.182 139.3C104.222 139.3 105.142 139.527 105.942 139.98C106.742 140.433 107.376 141.067 107.842 141.88C108.309 142.68 108.542 143.62 108.542 144.7C108.542 145.78 108.309 146.727 107.842 147.54C107.376 148.353 106.742 148.987 105.942 149.44C105.142 149.893 104.222 150.12 103.182 150.12ZM97.5622 153.88V139.4H99.4022V142.26L99.2822 144.72L99.4822 147.18V153.88H97.5622ZM103.022 148.44C103.702 148.44 104.309 148.287 104.842 147.98C105.389 147.673 105.816 147.24 106.122 146.68C106.442 146.107 106.602 145.447 106.602 144.7C106.602 143.94 106.442 143.287 106.122 142.74C105.816 142.18 105.389 141.747 104.842 141.44C104.309 141.133 103.702 140.98 103.022 140.98C102.356 140.98 101.749 141.133 101.202 141.44C100.669 141.747 100.242 142.18 99.9222 142.74C99.6155 143.287 99.4622 143.94 99.4622 144.7C99.4622 145.447 99.6155 146.107 99.9222 146.68C100.242 147.24 100.669 147.673 101.202 147.98C101.749 148.287 102.356 148.44 103.022 148.44ZM111.195 150V139.4H113.035V142.28L112.855 141.56C113.148 140.827 113.642 140.267 114.335 139.88C115.028 139.493 115.882 139.3 116.895 139.3V141.16C116.815 141.147 116.735 141.14 116.655 141.14C116.588 141.14 116.522 141.14 116.455 141.14C115.428 141.14 114.615 141.447 114.015 142.06C113.415 142.673 113.115 143.56 113.115 144.72V150H111.195ZM119.261 150V139.4H121.181V150H119.261ZM120.221 137.36C119.848 137.36 119.535 137.24 119.281 137C119.041 136.76 118.921 136.467 118.921 136.12C118.921 135.76 119.041 135.46 119.281 135.22C119.535 134.98 119.848 134.86 120.221 134.86C120.595 134.86 120.901 134.98 121.141 135.22C121.395 135.447 121.521 135.733 121.521 136.08C121.521 136.44 121.401 136.747 121.161 137C120.921 137.24 120.608 137.36 120.221 137.36ZM130.507 139.3C131.374 139.3 132.134 139.467 132.787 139.8C133.454 140.133 133.974 140.64 134.347 141.32C134.721 142 134.907 142.86 134.907 143.9V150H132.987V144.12C132.987 143.093 132.734 142.32 132.227 141.8C131.734 141.28 131.034 141.02 130.127 141.02C129.447 141.02 128.854 141.153 128.347 141.42C127.841 141.687 127.447 142.08 127.167 142.6C126.901 143.12 126.767 143.767 126.767 144.54V150H124.847V139.4H126.687V142.26L126.387 141.5C126.734 140.807 127.267 140.267 127.987 139.88C128.707 139.493 129.547 139.3 130.507 139.3ZM142.101 150.12C141.034 150.12 140.207 149.833 139.621 149.26C139.034 148.687 138.741 147.867 138.741 146.8V137.08H140.661V146.72C140.661 147.293 140.801 147.733 141.081 148.04C141.374 148.347 141.787 148.5 142.321 148.5C142.921 148.5 143.421 148.333 143.821 148L144.421 149.38C144.127 149.633 143.774 149.82 143.361 149.94C142.961 150.06 142.541 150.12 142.101 150.12ZM136.941 140.98V139.4H143.701V140.98H136.941ZM146.742 150V139.4H148.662V150H146.742ZM147.702 137.36C147.329 137.36 147.015 137.24 146.762 137C146.522 136.76 146.402 136.467 146.402 136.12C146.402 135.76 146.522 135.46 146.762 135.22C147.015 134.98 147.329 134.86 147.702 134.86C148.075 134.86 148.382 134.98 148.622 135.22C148.875 135.447 149.002 135.733 149.002 136.08C149.002 136.44 148.882 136.747 148.642 137C148.402 137.24 148.089 137.36 147.702 137.36ZM157.988 139.3C158.854 139.3 159.614 139.467 160.268 139.8C160.934 140.133 161.454 140.64 161.828 141.32C162.201 142 162.388 142.86 162.388 143.9V150H160.468V144.12C160.468 143.093 160.214 142.32 159.708 141.8C159.214 141.28 158.514 141.02 157.608 141.02C156.928 141.02 156.334 141.153 155.828 141.42C155.321 141.687 154.928 142.08 154.648 142.6C154.381 143.12 154.248 143.767 154.248 144.54V150H152.328V139.4H154.168V142.26L153.868 141.5C154.214 140.807 154.748 140.267 155.468 139.88C156.188 139.493 157.028 139.3 157.988 139.3ZM170.581 154C169.608 154 168.661 153.86 167.741 153.58C166.834 153.313 166.094 152.927 165.521 152.42L166.441 150.94C166.934 151.367 167.541 151.7 168.261 151.94C168.981 152.193 169.734 152.32 170.521 152.32C171.774 152.32 172.694 152.027 173.281 151.44C173.868 150.853 174.161 149.96 174.161 148.76V146.52L174.361 144.42L174.261 142.3V139.4H176.081V148.56C176.081 150.427 175.614 151.8 174.681 152.68C173.748 153.56 172.381 154 170.581 154ZM170.341 149.56C169.314 149.56 168.394 149.347 167.581 148.92C166.781 148.48 166.141 147.873 165.661 147.1C165.194 146.327 164.961 145.433 164.961 144.42C164.961 143.393 165.194 142.5 165.661 141.74C166.141 140.967 166.781 140.367 167.581 139.94C168.394 139.513 169.314 139.3 170.341 139.3C171.248 139.3 172.074 139.487 172.821 139.86C173.568 140.22 174.161 140.78 174.601 141.54C175.054 142.3 175.281 143.26 175.281 144.42C175.281 145.567 175.054 146.52 174.601 147.28C174.161 148.04 173.568 148.613 172.821 149C172.074 149.373 171.248 149.56 170.341 149.56ZM170.561 147.88C171.268 147.88 171.894 147.733 172.441 147.44C172.988 147.147 173.414 146.74 173.721 146.22C174.041 145.7 174.201 145.1 174.201 144.42C174.201 143.74 174.041 143.14 173.721 142.62C173.414 142.1 172.988 141.7 172.441 141.42C171.894 141.127 171.268 140.98 170.561 140.98C169.854 140.98 169.221 141.127 168.661 141.42C168.114 141.7 167.681 142.1 167.361 142.62C167.054 143.14 166.901 143.74 166.901 144.42C166.901 145.1 167.054 145.7 167.361 146.22C167.681 146.74 168.114 147.147 168.661 147.44C169.221 147.733 169.854 147.88 170.561 147.88ZM191.701 150V147.76L191.601 147.34V143.52C191.601 142.707 191.361 142.08 190.881 141.64C190.414 141.187 189.707 140.96 188.761 140.96C188.134 140.96 187.521 141.067 186.921 141.28C186.321 141.48 185.814 141.753 185.401 142.1L184.601 140.66C185.147 140.22 185.801 139.887 186.561 139.66C187.334 139.42 188.141 139.3 188.981 139.3C190.434 139.3 191.554 139.653 192.341 140.36C193.127 141.067 193.521 142.147 193.521 143.6V150H191.701ZM188.221 150.12C187.434 150.12 186.741 149.987 186.141 149.72C185.554 149.453 185.101 149.087 184.781 148.62C184.461 148.14 184.301 147.6 184.301 147C184.301 146.427 184.434 145.907 184.701 145.44C184.981 144.973 185.427 144.6 186.041 144.32C186.667 144.04 187.507 143.9 188.561 143.9H191.921V145.28H188.641C187.681 145.28 187.034 145.44 186.701 145.76C186.367 146.08 186.201 146.467 186.201 146.92C186.201 147.44 186.407 147.86 186.821 148.18C187.234 148.487 187.807 148.64 188.541 148.64C189.261 148.64 189.887 148.48 190.421 148.16C190.967 147.84 191.361 147.373 191.601 146.76L191.981 148.08C191.727 148.707 191.281 149.207 190.641 149.58C190.001 149.94 189.194 150.12 188.221 150.12ZM202.734 139.3C203.601 139.3 204.361 139.467 205.014 139.8C205.681 140.133 206.201 140.64 206.574 141.32C206.947 142 207.134 142.86 207.134 143.9V150H205.214V144.12C205.214 143.093 204.961 142.32 204.454 141.8C203.961 141.28 203.261 141.02 202.354 141.02C201.674 141.02 201.081 141.153 200.574 141.42C200.067 141.687 199.674 142.08 199.394 142.6C199.127 143.12 198.994 143.767 198.994 144.54V150H197.074V139.4H198.914V142.26L198.614 141.5C198.961 140.807 199.494 140.267 200.214 139.88C200.934 139.493 201.774 139.3 202.734 139.3ZM215.067 150.12C214.041 150.12 213.121 149.893 212.307 149.44C211.507 148.987 210.874 148.353 210.407 147.54C209.941 146.727 209.707 145.78 209.707 144.7C209.707 143.62 209.941 142.68 210.407 141.88C210.874 141.067 211.507 140.433 212.307 139.98C213.121 139.527 214.041 139.3 215.067 139.3C215.961 139.3 216.767 139.5 217.487 139.9C218.207 140.3 218.781 140.9 219.207 141.7C219.647 142.5 219.867 143.5 219.867 144.7C219.867 145.9 219.654 146.9 219.227 147.7C218.814 148.5 218.247 149.107 217.527 149.52C216.807 149.92 215.987 150.12 215.067 150.12ZM215.227 148.44C215.894 148.44 216.494 148.287 217.027 147.98C217.574 147.673 218.001 147.24 218.307 146.68C218.627 146.107 218.787 145.447 218.787 144.7C218.787 143.94 218.627 143.287 218.307 142.74C218.001 142.18 217.574 141.747 217.027 141.44C216.494 141.133 215.894 140.98 215.227 140.98C214.547 140.98 213.941 141.133 213.407 141.44C212.874 141.747 212.447 142.18 212.127 142.74C211.807 143.287 211.647 143.94 211.647 144.7C211.647 145.447 211.807 146.107 212.127 146.68C212.447 147.24 212.874 147.673 213.407 147.98C213.941 148.287 214.547 148.44 215.227 148.44ZM218.847 150V147.14L218.967 144.68L218.767 142.22V135.16H220.687V150H218.847ZM233.331 150.12C232.264 150.12 231.438 149.833 230.851 149.26C230.264 148.687 229.971 147.867 229.971 146.8V137.08H231.891V146.72C231.891 147.293 232.031 147.733 232.311 148.04C232.604 148.347 233.018 148.5 233.551 148.5C234.151 148.5 234.651 148.333 235.051 148L235.651 149.38C235.358 149.633 235.004 149.82 234.591 149.94C234.191 150.06 233.771 150.12 233.331 150.12ZM228.171 140.98V139.4H234.931V140.98H228.171ZM238.237 154C237.73 154 237.237 153.913 236.757 153.74C236.277 153.58 235.864 153.34 235.517 153.02L236.337 151.58C236.604 151.833 236.897 152.027 237.217 152.16C237.537 152.293 237.877 152.36 238.237 152.36C238.704 152.36 239.09 152.24 239.397 152C239.704 151.76 239.99 151.333 240.257 150.72L240.917 149.26L241.117 149.02L245.277 139.4H247.157L242.017 151.06C241.71 151.807 241.364 152.393 240.977 152.82C240.604 153.247 240.19 153.547 239.737 153.72C239.284 153.907 238.784 154 238.237 154ZM240.757 150.34L235.917 139.4H237.917L242.037 148.84L240.757 150.34ZM254.569 150.12C253.689 150.12 252.882 149.92 252.149 149.52C251.429 149.107 250.849 148.5 250.409 147.7C249.982 146.9 249.769 145.9 249.769 144.7C249.769 143.5 249.976 142.5 250.389 141.7C250.816 140.9 251.389 140.3 252.109 139.9C252.842 139.5 253.662 139.3 254.569 139.3C255.609 139.3 256.529 139.527 257.329 139.98C258.129 140.433 258.762 141.067 259.229 141.88C259.696 142.68 259.929 143.62 259.929 144.7C259.929 145.78 259.696 146.727 259.229 147.54C258.762 148.353 258.129 148.987 257.329 149.44C256.529 149.893 255.609 150.12 254.569 150.12ZM248.949 153.88V139.4H250.789V142.26L250.669 144.72L250.869 147.18V153.88H248.949ZM254.409 148.44C255.089 148.44 255.696 148.287 256.229 147.98C256.776 147.673 257.202 147.24 257.509 146.68C257.829 146.107 257.989 145.447 257.989 144.7C257.989 143.94 257.829 143.287 257.509 142.74C257.202 142.18 256.776 141.747 256.229 141.44C255.696 141.133 255.089 140.98 254.409 140.98C253.742 140.98 253.136 141.133 252.589 141.44C252.056 141.747 251.629 142.18 251.309 142.74C251.002 143.287 250.849 143.94 250.849 144.7C250.849 145.447 251.002 146.107 251.309 146.68C251.629 147.24 252.056 147.673 252.589 147.98C253.136 148.287 253.742 148.44 254.409 148.44ZM267.302 150.12C266.168 150.12 265.168 149.887 264.302 149.42C263.448 148.953 262.782 148.313 262.302 147.5C261.835 146.687 261.602 145.753 261.602 144.7C261.602 143.647 261.828 142.713 262.282 141.9C262.748 141.087 263.382 140.453 264.182 140C264.995 139.533 265.908 139.3 266.922 139.3C267.948 139.3 268.855 139.527 269.642 139.98C270.428 140.433 271.042 141.073 271.482 141.9C271.935 142.713 272.162 143.667 272.162 144.76C272.162 144.84 272.155 144.933 272.142 145.04C272.142 145.147 272.135 145.247 272.122 145.34H263.102V143.96H271.122L270.342 144.44C270.355 143.76 270.215 143.153 269.922 142.62C269.628 142.087 269.222 141.673 268.702 141.38C268.195 141.073 267.602 140.92 266.922 140.92C266.255 140.92 265.662 141.073 265.142 141.38C264.622 141.673 264.215 142.093 263.922 142.64C263.628 143.173 263.482 143.787 263.482 144.48V144.8C263.482 145.507 263.642 146.14 263.962 146.7C264.295 147.247 264.755 147.673 265.342 147.98C265.928 148.287 266.602 148.44 267.362 148.44C267.988 148.44 268.555 148.333 269.062 148.12C269.582 147.907 270.035 147.587 270.422 147.16L271.482 148.4C271.002 148.96 270.402 149.387 269.682 149.68C268.975 149.973 268.182 150.12 267.302 150.12ZM277.868 150.12C276.988 150.12 276.148 150 275.348 149.76C274.561 149.52 273.941 149.227 273.488 148.88L274.288 147.36C274.741 147.667 275.301 147.927 275.968 148.14C276.634 148.353 277.314 148.46 278.008 148.46C278.901 148.46 279.541 148.333 279.928 148.08C280.328 147.827 280.528 147.473 280.528 147.02C280.528 146.687 280.408 146.427 280.168 146.24C279.928 146.053 279.608 145.913 279.208 145.82C278.821 145.727 278.388 145.647 277.908 145.58C277.428 145.5 276.948 145.407 276.468 145.3C275.988 145.18 275.548 145.02 275.148 144.82C274.748 144.607 274.428 144.32 274.188 143.96C273.948 143.587 273.828 143.093 273.828 142.48C273.828 141.84 274.008 141.28 274.368 140.8C274.728 140.32 275.234 139.953 275.888 139.7C276.554 139.433 277.341 139.3 278.248 139.3C278.941 139.3 279.641 139.387 280.348 139.56C281.068 139.72 281.654 139.953 282.108 140.26L281.288 141.78C280.808 141.46 280.308 141.24 279.788 141.12C279.268 141 278.748 140.94 278.228 140.94C277.388 140.94 276.761 141.08 276.348 141.36C275.934 141.627 275.728 141.973 275.728 142.4C275.728 142.76 275.848 143.04 276.088 143.24C276.341 143.427 276.661 143.573 277.048 143.68C277.448 143.787 277.888 143.88 278.368 143.96C278.848 144.027 279.328 144.12 279.808 144.24C280.288 144.347 280.721 144.5 281.108 144.7C281.508 144.9 281.828 145.18 282.068 145.54C282.321 145.9 282.448 146.38 282.448 146.98C282.448 147.62 282.261 148.173 281.888 148.64C281.514 149.107 280.988 149.473 280.308 149.74C279.628 149.993 278.814 150.12 277.868 150.12ZM289.567 150.12C288.434 150.12 287.434 149.887 286.567 149.42C285.714 148.953 285.047 148.313 284.567 147.5C284.101 146.687 283.867 145.753 283.867 144.7C283.867 143.647 284.094 142.713 284.547 141.9C285.014 141.087 285.647 140.453 286.447 140C287.261 139.533 288.174 139.3 289.187 139.3C290.214 139.3 291.121 139.527 291.907 139.98C292.694 140.433 293.307 141.073 293.747 141.9C294.201 142.713 294.427 143.667 294.427 144.76C294.427 144.84 294.421 144.933 294.407 145.04C294.407 145.147 294.401 145.247 294.387 145.34H285.367V143.96H293.387L292.607 144.44C292.621 143.76 292.481 143.153 292.187 142.62C291.894 142.087 291.487 141.673 290.967 141.38C290.461 141.073 289.867 140.92 289.187 140.92C288.521 140.92 287.927 141.073 287.407 141.38C286.887 141.673 286.481 142.093 286.187 142.64C285.894 143.173 285.747 143.787 285.747 144.48V144.8C285.747 145.507 285.907 146.14 286.227 146.7C286.561 147.247 287.021 147.673 287.607 147.98C288.194 148.287 288.867 148.44 289.627 148.44C290.254 148.44 290.821 148.333 291.327 148.12C291.847 147.907 292.301 147.587 292.687 147.16L293.747 148.4C293.267 148.96 292.667 149.387 291.947 149.68C291.241 149.973 290.447 150.12 289.567 150.12ZM300.733 150.12C299.667 150.12 298.84 149.833 298.253 149.26C297.667 148.687 297.373 147.867 297.373 146.8V137.08H299.293V146.72C299.293 147.293 299.433 147.733 299.713 148.04C300.007 148.347 300.42 148.5 300.953 148.5C301.553 148.5 302.053 148.333 302.453 148L303.053 149.38C302.76 149.633 302.407 149.82 301.993 149.94C301.593 150.06 301.173 150.12 300.733 150.12ZM295.573 140.98V139.4H302.333V140.98H295.573ZM308.761 150.12C307.694 150.12 306.867 149.833 306.281 149.26C305.694 148.687 305.401 147.867 305.401 146.8V137.08H307.321V146.72C307.321 147.293 307.461 147.733 307.741 148.04C308.034 148.347 308.447 148.5 308.981 148.5C309.581 148.5 310.081 148.333 310.481 148L311.081 149.38C310.787 149.633 310.434 149.82 310.021 149.94C309.621 150.06 309.201 150.12 308.761 150.12ZM303.601 140.98V139.4H310.361V140.98H303.601ZM313.402 150V139.4H315.322V150H313.402ZM314.362 137.36C313.989 137.36 313.675 137.24 313.422 137C313.182 136.76 313.062 136.467 313.062 136.12C313.062 135.76 313.182 135.46 313.422 135.22C313.675 134.98 313.989 134.86 314.362 134.86C314.735 134.86 315.042 134.98 315.282 135.22C315.535 135.447 315.662 135.733 315.662 136.08C315.662 136.44 315.542 136.747 315.302 137C315.062 137.24 314.749 137.36 314.362 137.36ZM324.648 139.3C325.515 139.3 326.275 139.467 326.928 139.8C327.595 140.133 328.115 140.64 328.488 141.32C328.861 142 329.048 142.86 329.048 143.9V150H327.128V144.12C327.128 143.093 326.875 142.32 326.368 141.8C325.875 141.28 325.175 141.02 324.268 141.02C323.588 141.02 322.995 141.153 322.488 141.42C321.981 141.687 321.588 142.08 321.308 142.6C321.041 143.12 320.908 143.767 320.908 144.54V150H318.988V139.4H320.828V142.26L320.528 141.5C320.875 140.807 321.408 140.267 322.128 139.88C322.848 139.493 323.688 139.3 324.648 139.3ZM337.241 154C336.268 154 335.321 153.86 334.401 153.58C333.495 153.313 332.755 152.927 332.181 152.42L333.101 150.94C333.595 151.367 334.201 151.7 334.921 151.94C335.641 152.193 336.395 152.32 337.181 152.32C338.435 152.32 339.355 152.027 339.941 151.44C340.528 150.853 340.821 149.96 340.821 148.76V146.52L341.021 144.42L340.921 142.3V139.4H342.741V148.56C342.741 150.427 342.275 151.8 341.341 152.68C340.408 153.56 339.041 154 337.241 154ZM337.001 149.56C335.975 149.56 335.055 149.347 334.241 148.92C333.441 148.48 332.801 147.873 332.321 147.1C331.855 146.327 331.621 145.433 331.621 144.42C331.621 143.393 331.855 142.5 332.321 141.74C332.801 140.967 333.441 140.367 334.241 139.94C335.055 139.513 335.975 139.3 337.001 139.3C337.908 139.3 338.735 139.487 339.481 139.86C340.228 140.22 340.821 140.78 341.261 141.54C341.715 142.3 341.941 143.26 341.941 144.42C341.941 145.567 341.715 146.52 341.261 147.28C340.821 148.04 340.228 148.613 339.481 149C338.735 149.373 337.908 149.56 337.001 149.56ZM337.221 147.88C337.928 147.88 338.555 147.733 339.101 147.44C339.648 147.147 340.075 146.74 340.381 146.22C340.701 145.7 340.861 145.1 340.861 144.42C340.861 143.74 340.701 143.14 340.381 142.62C340.075 142.1 339.648 141.7 339.101 141.42C338.555 141.127 337.928 140.98 337.221 140.98C336.515 140.98 335.881 141.127 335.321 141.42C334.775 141.7 334.341 142.1 334.021 142.62C333.715 143.14 333.561 143.74 333.561 144.42C333.561 145.1 333.715 145.7 334.021 146.22C334.341 146.74 334.775 147.147 335.321 147.44C335.881 147.733 336.515 147.88 337.221 147.88ZM351.781 150V139.4H353.701V150H351.781ZM352.741 137.36C352.368 137.36 352.054 137.24 351.801 137C351.561 136.76 351.441 136.467 351.441 136.12C351.441 135.76 351.561 135.46 351.801 135.22C352.054 134.98 352.368 134.86 352.741 134.86C353.114 134.86 353.421 134.98 353.661 135.22C353.914 135.447 354.041 135.733 354.041 136.08C354.041 136.44 353.921 136.747 353.681 137C353.441 137.24 353.128 137.36 352.741 137.36ZM363.027 139.3C363.894 139.3 364.654 139.467 365.307 139.8C365.974 140.133 366.494 140.64 366.867 141.32C367.24 142 367.427 142.86 367.427 143.9V150H365.507V144.12C365.507 143.093 365.254 142.32 364.747 141.8C364.254 141.28 363.554 141.02 362.647 141.02C361.967 141.02 361.374 141.153 360.867 141.42C360.36 141.687 359.967 142.08 359.687 142.6C359.42 143.12 359.287 143.767 359.287 144.54V150H357.367V139.4H359.207V142.26L358.907 141.5C359.254 140.807 359.787 140.267 360.507 139.88C361.227 139.493 362.067 139.3 363.027 139.3ZM375.36 150.12C374.333 150.12 373.413 149.893 372.6 149.44C371.8 148.987 371.167 148.353 370.7 147.54C370.233 146.727 370 145.78 370 144.7C370 143.62 370.233 142.68 370.7 141.88C371.167 141.067 371.8 140.433 372.6 139.98C373.413 139.527 374.333 139.3 375.36 139.3C376.253 139.3 377.06 139.5 377.78 139.9C378.5 140.3 379.073 140.9 379.5 141.7C379.94 142.5 380.16 143.5 380.16 144.7C380.16 145.9 379.947 146.9 379.52 147.7C379.107 148.5 378.54 149.107 377.82 149.52C377.1 149.92 376.28 150.12 375.36 150.12ZM375.52 148.44C376.187 148.44 376.787 148.287 377.32 147.98C377.867 147.673 378.293 147.24 378.6 146.68C378.92 146.107 379.08 145.447 379.08 144.7C379.08 143.94 378.92 143.287 378.6 142.74C378.293 142.18 377.867 141.747 377.32 141.44C376.787 141.133 376.187 140.98 375.52 140.98C374.84 140.98 374.233 141.133 373.7 141.44C373.167 141.747 372.74 142.18 372.42 142.74C372.1 143.287 371.94 143.94 371.94 144.7C371.94 145.447 372.1 146.107 372.42 146.68C372.74 147.24 373.167 147.673 373.7 147.98C374.233 148.287 374.84 148.44 375.52 148.44ZM379.14 150V147.14L379.26 144.68L379.06 142.22V135.16H380.98V150H379.14ZM389.073 150.12C388.166 150.12 387.366 149.953 386.673 149.62C385.993 149.287 385.46 148.78 385.073 148.1C384.7 147.407 384.513 146.54 384.513 145.5V139.4H386.433V145.28C386.433 146.32 386.68 147.1 387.173 147.62C387.68 148.14 388.386 148.4 389.293 148.4C389.96 148.4 390.54 148.267 391.033 148C391.526 147.72 391.906 147.32 392.173 146.8C392.44 146.267 392.573 145.627 392.573 144.88V139.4H394.493V150H392.673V147.14L392.973 147.9C392.626 148.607 392.106 149.153 391.413 149.54C390.72 149.927 389.94 150.12 389.073 150.12ZM401.188 150.12C400.308 150.12 399.468 150 398.668 149.76C397.881 149.52 397.261 149.227 396.808 148.88L397.608 147.36C398.061 147.667 398.621 147.927 399.288 148.14C399.955 148.353 400.635 148.46 401.328 148.46C402.221 148.46 402.861 148.333 403.248 148.08C403.648 147.827 403.848 147.473 403.848 147.02C403.848 146.687 403.728 146.427 403.488 146.24C403.248 146.053 402.928 145.913 402.528 145.82C402.141 145.727 401.708 145.647 401.228 145.58C400.748 145.5 400.268 145.407 399.788 145.3C399.308 145.18 398.868 145.02 398.468 144.82C398.068 144.607 397.748 144.32 397.508 143.96C397.268 143.587 397.148 143.093 397.148 142.48C397.148 141.84 397.328 141.28 397.688 140.8C398.048 140.32 398.555 139.953 399.208 139.7C399.875 139.433 400.661 139.3 401.568 139.3C402.261 139.3 402.961 139.387 403.668 139.56C404.388 139.72 404.975 139.953 405.428 140.26L404.608 141.78C404.128 141.46 403.628 141.24 403.108 141.12C402.588 141 402.068 140.94 401.548 140.94C400.708 140.94 400.081 141.08 399.668 141.36C399.255 141.627 399.048 141.973 399.048 142.4C399.048 142.76 399.168 143.04 399.408 143.24C399.661 143.427 399.981 143.573 400.368 143.68C400.768 143.787 401.208 143.88 401.688 143.96C402.168 144.027 402.648 144.12 403.128 144.24C403.608 144.347 404.041 144.5 404.428 144.7C404.828 144.9 405.148 145.18 405.388 145.54C405.641 145.9 405.768 146.38 405.768 146.98C405.768 147.62 405.581 148.173 405.208 148.64C404.835 149.107 404.308 149.473 403.628 149.74C402.948 149.993 402.135 150.12 401.188 150.12ZM411.808 150.12C410.741 150.12 409.914 149.833 409.328 149.26C408.741 148.687 408.448 147.867 408.448 146.8V137.08H410.368V146.72C410.368 147.293 410.508 147.733 410.788 148.04C411.081 148.347 411.494 148.5 412.028 148.5C412.628 148.5 413.128 148.333 413.528 148L414.128 149.38C413.834 149.633 413.481 149.82 413.068 149.94C412.668 150.06 412.248 150.12 411.808 150.12ZM406.648 140.98V139.4H413.408V140.98H406.648ZM416.449 150V139.4H418.289V142.28L418.109 141.56C418.402 140.827 418.896 140.267 419.589 139.88C420.282 139.493 421.136 139.3 422.149 139.3V141.16C422.069 141.147 421.989 141.14 421.909 141.14C421.842 141.14 421.776 141.14 421.709 141.14C420.682 141.14 419.869 141.447 419.269 142.06C418.669 142.673 418.369 143.56 418.369 144.72V150H416.449ZM425.405 154C424.898 154 424.405 153.913 423.925 153.74C423.445 153.58 423.032 153.34 422.685 153.02L423.505 151.58C423.772 151.833 424.065 152.027 424.385 152.16C424.705 152.293 425.045 152.36 425.405 152.36C425.872 152.36 426.258 152.24 426.565 152C426.872 151.76 427.158 151.333 427.425 150.72L428.085 149.26L428.285 149.02L432.445 139.4H434.325L429.185 151.06C428.878 151.807 428.532 152.393 428.145 152.82C427.772 153.247 427.358 153.547 426.905 153.72C426.452 153.907 425.952 154 425.405 154ZM427.925 150.34L423.085 139.4H425.085L429.205 148.84L427.925 150.34ZM435.913 150.12C435.539 150.12 435.219 149.993 434.953 149.74C434.686 149.473 434.553 149.14 434.553 148.74C434.553 148.34 434.686 148.013 434.953 147.76C435.219 147.507 435.539 147.38 435.913 147.38C436.273 147.38 436.579 147.507 436.833 147.76C437.099 148.013 437.233 148.34 437.233 148.74C437.233 149.14 437.099 149.473 436.833 149.74C436.579 149.993 436.273 150.12 435.913 150.12ZM107.198 183V169H109.198V181.26H116.778V183H107.198ZM123.196 183.12C122.129 183.12 121.183 182.887 120.356 182.42C119.529 181.953 118.876 181.313 118.396 180.5C117.916 179.673 117.676 178.74 117.676 177.7C117.676 176.647 117.916 175.713 118.396 174.9C118.876 174.087 119.529 173.453 120.356 173C121.183 172.533 122.129 172.3 123.196 172.3C124.249 172.3 125.189 172.533 126.016 173C126.856 173.453 127.509 174.087 127.976 174.9C128.456 175.7 128.696 176.633 128.696 177.7C128.696 178.753 128.456 179.687 127.976 180.5C127.509 181.313 126.856 181.953 126.016 182.42C125.189 182.887 124.249 183.12 123.196 183.12ZM123.196 181.44C123.876 181.44 124.483 181.287 125.016 180.98C125.563 180.673 125.989 180.24 126.296 179.68C126.603 179.107 126.756 178.447 126.756 177.7C126.756 176.94 126.603 176.287 126.296 175.74C125.989 175.18 125.563 174.747 125.016 174.44C124.483 174.133 123.876 173.98 123.196 173.98C122.516 173.98 121.909 174.133 121.376 174.44C120.843 174.747 120.416 175.18 120.096 175.74C119.776 176.287 119.616 176.94 119.616 177.7C119.616 178.447 119.776 179.107 120.096 179.68C120.416 180.24 120.843 180.673 121.376 180.98C121.909 181.287 122.516 181.44 123.196 181.44ZM131.351 183V172.4H133.191V175.28L133.011 174.56C133.305 173.827 133.798 173.267 134.491 172.88C135.185 172.493 136.038 172.3 137.051 172.3V174.16C136.971 174.147 136.891 174.14 136.811 174.14C136.745 174.14 136.678 174.14 136.611 174.14C135.585 174.14 134.771 174.447 134.171 175.06C133.571 175.673 133.271 176.56 133.271 177.72V183H131.351ZM144.04 183.12C142.907 183.12 141.907 182.887 141.04 182.42C140.187 181.953 139.52 181.313 139.04 180.5C138.573 179.687 138.34 178.753 138.34 177.7C138.34 176.647 138.567 175.713 139.02 174.9C139.487 174.087 140.12 173.453 140.92 173C141.733 172.533 142.647 172.3 143.66 172.3C144.687 172.3 145.593 172.527 146.38 172.98C147.167 173.433 147.78 174.073 148.22 174.9C148.673 175.713 148.9 176.667 148.9 177.76C148.9 177.84 148.893 177.933 148.88 178.04C148.88 178.147 148.873 178.247 148.86 178.34H139.84V176.96H147.86L147.08 177.44C147.093 176.76 146.953 176.153 146.66 175.62C146.367 175.087 145.96 174.673 145.44 174.38C144.933 174.073 144.34 173.92 143.66 173.92C142.993 173.92 142.4 174.073 141.88 174.38C141.36 174.673 140.953 175.093 140.66 175.64C140.367 176.173 140.22 176.787 140.22 177.48V177.8C140.22 178.507 140.38 179.14 140.7 179.7C141.033 180.247 141.493 180.673 142.08 180.98C142.667 181.287 143.34 181.44 144.1 181.44C144.727 181.44 145.293 181.333 145.8 181.12C146.32 180.907 146.773 180.587 147.16 180.16L148.22 181.4C147.74 181.96 147.14 182.387 146.42 182.68C145.713 182.973 144.92 183.12 144.04 183.12ZM164.826 172.3C165.679 172.3 166.433 172.467 167.086 172.8C167.739 173.133 168.246 173.64 168.606 174.32C168.979 175 169.166 175.86 169.166 176.9V183H167.246V177.12C167.246 176.093 167.006 175.32 166.526 174.8C166.046 174.28 165.373 174.02 164.506 174.02C163.866 174.02 163.306 174.153 162.826 174.42C162.346 174.687 161.973 175.08 161.706 175.6C161.453 176.12 161.326 176.767 161.326 177.54V183H159.406V177.12C159.406 176.093 159.166 175.32 158.686 174.8C158.219 174.28 157.546 174.02 156.666 174.02C156.039 174.02 155.486 174.153 155.006 174.42C154.526 174.687 154.153 175.08 153.886 175.6C153.619 176.12 153.486 176.767 153.486 177.54V183H151.566V172.4H153.406V175.22L153.106 174.5C153.439 173.807 153.953 173.267 154.646 172.88C155.339 172.493 156.146 172.3 157.066 172.3C158.079 172.3 158.953 172.553 159.686 173.06C160.419 173.553 160.899 174.307 161.126 175.32L160.346 175C160.666 174.187 161.226 173.533 162.026 173.04C162.826 172.547 163.759 172.3 164.826 172.3ZM178.35 183V169H180.35V183H178.35ZM189.881 183.12C189.001 183.12 188.195 182.92 187.461 182.52C186.741 182.107 186.161 181.5 185.721 180.7C185.295 179.9 185.081 178.9 185.081 177.7C185.081 176.5 185.288 175.5 185.701 174.7C186.128 173.9 186.701 173.3 187.421 172.9C188.155 172.5 188.975 172.3 189.881 172.3C190.921 172.3 191.841 172.527 192.641 172.98C193.441 173.433 194.075 174.067 194.541 174.88C195.008 175.68 195.241 176.62 195.241 177.7C195.241 178.78 195.008 179.727 194.541 180.54C194.075 181.353 193.441 181.987 192.641 182.44C191.841 182.893 190.921 183.12 189.881 183.12ZM184.261 186.88V172.4H186.101V175.26L185.981 177.72L186.181 180.18V186.88H184.261ZM189.721 181.44C190.401 181.44 191.008 181.287 191.541 180.98C192.088 180.673 192.515 180.24 192.821 179.68C193.141 179.107 193.301 178.447 193.301 177.7C193.301 176.94 193.141 176.287 192.821 175.74C192.515 175.18 192.088 174.747 191.541 174.44C191.008 174.133 190.401 173.98 189.721 173.98C189.055 173.98 188.448 174.133 187.901 174.44C187.368 174.747 186.941 175.18 186.621 175.74C186.315 176.287 186.161 176.94 186.161 177.7C186.161 178.447 186.315 179.107 186.621 179.68C186.941 180.24 187.368 180.673 187.901 180.98C188.448 181.287 189.055 181.44 189.721 181.44ZM200.934 183.12C200.054 183.12 199.214 183 198.414 182.76C197.628 182.52 197.008 182.227 196.554 181.88L197.354 180.36C197.808 180.667 198.368 180.927 199.034 181.14C199.701 181.353 200.381 181.46 201.074 181.46C201.968 181.46 202.608 181.333 202.994 181.08C203.394 180.827 203.594 180.473 203.594 180.02C203.594 179.687 203.474 179.427 203.234 179.24C202.994 179.053 202.674 178.913 202.274 178.82C201.888 178.727 201.454 178.647 200.974 178.58C200.494 178.5 200.014 178.407 199.534 178.3C199.054 178.18 198.614 178.02 198.214 177.82C197.814 177.607 197.494 177.32 197.254 176.96C197.014 176.587 196.894 176.093 196.894 175.48C196.894 174.84 197.074 174.28 197.434 173.8C197.794 173.32 198.301 172.953 198.954 172.7C199.621 172.433 200.408 172.3 201.314 172.3C202.008 172.3 202.708 172.387 203.414 172.56C204.134 172.72 204.721 172.953 205.174 173.26L204.354 174.78C203.874 174.46 203.374 174.24 202.854 174.12C202.334 174 201.814 173.94 201.294 173.94C200.454 173.94 199.828 174.08 199.414 174.36C199.001 174.627 198.794 174.973 198.794 175.4C198.794 175.76 198.914 176.04 199.154 176.24C199.408 176.427 199.728 176.573 200.114 176.68C200.514 176.787 200.954 176.88 201.434 176.96C201.914 177.027 202.394 177.12 202.874 177.24C203.354 177.347 203.788 177.5 204.174 177.7C204.574 177.9 204.894 178.18 205.134 178.54C205.388 178.9 205.514 179.38 205.514 179.98C205.514 180.62 205.328 181.173 204.954 181.64C204.581 182.107 204.054 182.473 203.374 182.74C202.694 182.993 201.881 183.12 200.934 183.12ZM212.374 183.12C211.467 183.12 210.667 182.953 209.974 182.62C209.294 182.287 208.76 181.78 208.374 181.1C208 180.407 207.814 179.54 207.814 178.5V172.4H209.734V178.28C209.734 179.32 209.98 180.1 210.474 180.62C210.98 181.14 211.687 181.4 212.594 181.4C213.26 181.4 213.84 181.267 214.334 181C214.827 180.72 215.207 180.32 215.474 179.8C215.74 179.267 215.874 178.627 215.874 177.88V172.4H217.794V183H215.974V180.14L216.274 180.9C215.927 181.607 215.407 182.153 214.714 182.54C214.02 182.927 213.24 183.12 212.374 183.12ZM234.709 172.3C235.562 172.3 236.316 172.467 236.969 172.8C237.622 173.133 238.129 173.64 238.489 174.32C238.862 175 239.049 175.86 239.049 176.9V183H237.129V177.12C237.129 176.093 236.889 175.32 236.409 174.8C235.929 174.28 235.256 174.02 234.389 174.02C233.749 174.02 233.189 174.153 232.709 174.42C232.229 174.687 231.856 175.08 231.589 175.6C231.336 176.12 231.209 176.767 231.209 177.54V183H229.289V177.12C229.289 176.093 229.049 175.32 228.569 174.8C228.102 174.28 227.429 174.02 226.549 174.02C225.922 174.02 225.369 174.153 224.889 174.42C224.409 174.687 224.036 175.08 223.769 175.6C223.502 176.12 223.369 176.767 223.369 177.54V183H221.449V172.4H223.289V175.22L222.989 174.5C223.322 173.807 223.836 173.267 224.529 172.88C225.222 172.493 226.029 172.3 226.949 172.3C227.962 172.3 228.836 172.553 229.569 173.06C230.302 173.553 230.782 174.307 231.009 175.32L230.229 175C230.549 174.187 231.109 173.533 231.909 173.04C232.709 172.547 233.642 172.3 234.709 172.3ZM253.613 172.3C254.479 172.3 255.239 172.467 255.893 172.8C256.559 173.133 257.079 173.64 257.453 174.32C257.826 175 258.013 175.86 258.013 176.9V183H256.093V177.12C256.093 176.093 255.839 175.32 255.333 174.8C254.839 174.28 254.139 174.02 253.233 174.02C252.553 174.02 251.959 174.153 251.453 174.42C250.946 174.687 250.553 175.08 250.273 175.6C250.006 176.12 249.873 176.767 249.873 177.54V183H247.953V168.16H249.873V175.26L249.493 174.5C249.839 173.807 250.373 173.267 251.093 172.88C251.813 172.493 252.653 172.3 253.613 172.3ZM268.146 183V180.76L268.046 180.34V176.52C268.046 175.707 267.806 175.08 267.326 174.64C266.859 174.187 266.153 173.96 265.206 173.96C264.579 173.96 263.966 174.067 263.366 174.28C262.766 174.48 262.259 174.753 261.846 175.1L261.046 173.66C261.593 173.22 262.246 172.887 263.006 172.66C263.779 172.42 264.586 172.3 265.426 172.3C266.879 172.3 267.999 172.653 268.786 173.36C269.573 174.067 269.966 175.147 269.966 176.6V183H268.146ZM264.666 183.12C263.879 183.12 263.186 182.987 262.586 182.72C261.999 182.453 261.546 182.087 261.226 181.62C260.906 181.14 260.746 180.6 260.746 180C260.746 179.427 260.879 178.907 261.146 178.44C261.426 177.973 261.873 177.6 262.486 177.32C263.113 177.04 263.953 176.9 265.006 176.9H268.366V178.28H265.086C264.126 178.28 263.479 178.44 263.146 178.76C262.813 179.08 262.646 179.467 262.646 179.92C262.646 180.44 262.853 180.86 263.266 181.18C263.679 181.487 264.253 181.64 264.986 181.64C265.706 181.64 266.333 181.48 266.866 181.16C267.413 180.84 267.806 180.373 268.046 179.76L268.426 181.08C268.173 181.707 267.726 182.207 267.086 182.58C266.446 182.94 265.639 183.12 264.666 183.12ZM276.559 183.12C275.679 183.12 274.839 183 274.039 182.76C273.253 182.52 272.633 182.227 272.179 181.88L272.979 180.36C273.433 180.667 273.993 180.927 274.659 181.14C275.326 181.353 276.006 181.46 276.699 181.46C277.593 181.46 278.233 181.333 278.619 181.08C279.019 180.827 279.219 180.473 279.219 180.02C279.219 179.687 279.099 179.427 278.859 179.24C278.619 179.053 278.299 178.913 277.899 178.82C277.513 178.727 277.079 178.647 276.599 178.58C276.119 178.5 275.639 178.407 275.159 178.3C274.679 178.18 274.239 178.02 273.839 177.82C273.439 177.607 273.119 177.32 272.879 176.96C272.639 176.587 272.519 176.093 272.519 175.48C272.519 174.84 272.699 174.28 273.059 173.8C273.419 173.32 273.926 172.953 274.579 172.7C275.246 172.433 276.033 172.3 276.939 172.3C277.633 172.3 278.333 172.387 279.039 172.56C279.759 172.72 280.346 172.953 280.799 173.26L279.979 174.78C279.499 174.46 278.999 174.24 278.479 174.12C277.959 174 277.439 173.94 276.919 173.94C276.079 173.94 275.453 174.08 275.039 174.36C274.626 174.627 274.419 174.973 274.419 175.4C274.419 175.76 274.539 176.04 274.779 176.24C275.033 176.427 275.353 176.573 275.739 176.68C276.139 176.787 276.579 176.88 277.059 176.96C277.539 177.027 278.019 177.12 278.499 177.24C278.979 177.347 279.413 177.5 279.799 177.7C280.199 177.9 280.519 178.18 280.759 178.54C281.013 178.9 281.139 179.38 281.139 179.98C281.139 180.62 280.953 181.173 280.579 181.64C280.206 182.107 279.679 182.473 278.999 182.74C278.319 182.993 277.506 183.12 276.559 183.12ZM294.53 183.12C293.623 183.12 292.803 182.92 292.07 182.52C291.35 182.107 290.777 181.5 290.35 180.7C289.937 179.9 289.73 178.9 289.73 177.7C289.73 176.5 289.943 175.5 290.37 174.7C290.81 173.9 291.39 173.3 292.11 172.9C292.843 172.5 293.65 172.3 294.53 172.3C295.57 172.3 296.49 172.527 297.29 172.98C298.09 173.433 298.723 174.067 299.19 174.88C299.657 175.68 299.89 176.62 299.89 177.7C299.89 178.78 299.657 179.727 299.19 180.54C298.723 181.353 298.09 181.987 297.29 182.44C296.49 182.893 295.57 183.12 294.53 183.12ZM288.91 183V168.16H290.83V175.22L290.63 177.68L290.75 180.14V183H288.91ZM294.37 181.44C295.05 181.44 295.657 181.287 296.19 180.98C296.737 180.673 297.163 180.24 297.47 179.68C297.79 179.107 297.95 178.447 297.95 177.7C297.95 176.94 297.79 176.287 297.47 175.74C297.163 175.18 296.737 174.747 296.19 174.44C295.657 174.133 295.05 173.98 294.37 173.98C293.703 173.98 293.097 174.133 292.55 174.44C292.017 174.747 291.59 175.18 291.27 175.74C290.963 176.287 290.81 176.94 290.81 177.7C290.81 178.447 290.963 179.107 291.27 179.68C291.59 180.24 292.017 180.673 292.55 180.98C293.097 181.287 293.703 181.44 294.37 181.44ZM307.263 183.12C306.129 183.12 305.129 182.887 304.263 182.42C303.409 181.953 302.743 181.313 302.263 180.5C301.796 179.687 301.563 178.753 301.563 177.7C301.563 176.647 301.789 175.713 302.243 174.9C302.709 174.087 303.343 173.453 304.143 173C304.956 172.533 305.869 172.3 306.883 172.3C307.909 172.3 308.816 172.527 309.603 172.98C310.389 173.433 311.003 174.073 311.443 174.9C311.896 175.713 312.123 176.667 312.123 177.76C312.123 177.84 312.116 177.933 312.103 178.04C312.103 178.147 312.096 178.247 312.083 178.34H303.063V176.96H311.083L310.303 177.44C310.316 176.76 310.176 176.153 309.883 175.62C309.589 175.087 309.183 174.673 308.663 174.38C308.156 174.073 307.563 173.92 306.883 173.92C306.216 173.92 305.623 174.073 305.103 174.38C304.583 174.673 304.176 175.093 303.883 175.64C303.589 176.173 303.443 176.787 303.443 177.48V177.8C303.443 178.507 303.603 179.14 303.923 179.7C304.256 180.247 304.716 180.673 305.303 180.98C305.889 181.287 306.563 181.44 307.323 181.44C307.949 181.44 308.516 181.333 309.023 181.12C309.543 180.907 309.996 180.587 310.383 180.16L311.443 181.4C310.963 181.96 310.363 182.387 309.643 182.68C308.936 182.973 308.143 183.12 307.263 183.12ZM319.509 183.12C318.375 183.12 317.375 182.887 316.509 182.42C315.655 181.953 314.989 181.313 314.509 180.5C314.042 179.687 313.809 178.753 313.809 177.7C313.809 176.647 314.035 175.713 314.489 174.9C314.955 174.087 315.589 173.453 316.389 173C317.202 172.533 318.115 172.3 319.129 172.3C320.155 172.3 321.062 172.527 321.849 172.98C322.635 173.433 323.249 174.073 323.689 174.9C324.142 175.713 324.369 176.667 324.369 177.76C324.369 177.84 324.362 177.933 324.349 178.04C324.349 178.147 324.342 178.247 324.329 178.34H315.309V176.96H323.329L322.549 177.44C322.562 176.76 322.422 176.153 322.129 175.62C321.835 175.087 321.429 174.673 320.909 174.38C320.402 174.073 319.809 173.92 319.129 173.92C318.462 173.92 317.869 174.073 317.349 174.38C316.829 174.673 316.422 175.093 316.129 175.64C315.835 176.173 315.689 176.787 315.689 177.48V177.8C315.689 178.507 315.849 179.14 316.169 179.7C316.502 180.247 316.962 180.673 317.549 180.98C318.135 181.287 318.809 181.44 319.569 181.44C320.195 181.44 320.762 181.333 321.269 181.12C321.789 180.907 322.242 180.587 322.629 180.16L323.689 181.4C323.209 181.96 322.609 182.387 321.889 182.68C321.182 182.973 320.389 183.12 319.509 183.12ZM332.695 172.3C333.562 172.3 334.322 172.467 334.975 172.8C335.642 173.133 336.162 173.64 336.535 174.32C336.908 175 337.095 175.86 337.095 176.9V183H335.175V177.12C335.175 176.093 334.922 175.32 334.415 174.8C333.922 174.28 333.222 174.02 332.315 174.02C331.635 174.02 331.042 174.153 330.535 174.42C330.028 174.687 329.635 175.08 329.355 175.6C329.088 176.12 328.955 176.767 328.955 177.54V183H327.035V172.4H328.875V175.26L328.575 174.5C328.922 173.807 329.455 173.267 330.175 172.88C330.895 172.493 331.735 172.3 332.695 172.3ZM349.659 183.12C348.593 183.12 347.766 182.833 347.179 182.26C346.593 181.687 346.299 180.867 346.299 179.8V170.08H348.219V179.72C348.219 180.293 348.359 180.733 348.639 181.04C348.933 181.347 349.346 181.5 349.879 181.5C350.479 181.5 350.979 181.333 351.379 181L351.979 182.38C351.686 182.633 351.333 182.82 350.919 182.94C350.519 183.06 350.099 183.12 349.659 183.12ZM344.499 173.98V172.4H351.259V173.98H344.499ZM359.96 172.3C360.827 172.3 361.587 172.467 362.24 172.8C362.907 173.133 363.427 173.64 363.8 174.32C364.174 175 364.36 175.86 364.36 176.9V183H362.44V177.12C362.44 176.093 362.187 175.32 361.68 174.8C361.187 174.28 360.487 174.02 359.58 174.02C358.9 174.02 358.307 174.153 357.8 174.42C357.294 174.687 356.9 175.08 356.62 175.6C356.354 176.12 356.22 176.767 356.22 177.54V183H354.3V168.16H356.22V175.26L355.84 174.5C356.187 173.807 356.72 173.267 357.44 172.88C358.16 172.493 359 172.3 359.96 172.3ZM372.634 183.12C371.5 183.12 370.5 182.887 369.634 182.42C368.78 181.953 368.114 181.313 367.634 180.5C367.167 179.687 366.934 178.753 366.934 177.7C366.934 176.647 367.16 175.713 367.614 174.9C368.08 174.087 368.714 173.453 369.514 173C370.327 172.533 371.24 172.3 372.254 172.3C373.28 172.3 374.187 172.527 374.974 172.98C375.76 173.433 376.374 174.073 376.814 174.9C377.267 175.713 377.494 176.667 377.494 177.76C377.494 177.84 377.487 177.933 377.474 178.04C377.474 178.147 377.467 178.247 377.454 178.34H368.434V176.96H376.454L375.674 177.44C375.687 176.76 375.547 176.153 375.254 175.62C374.96 175.087 374.554 174.673 374.034 174.38C373.527 174.073 372.934 173.92 372.254 173.92C371.587 173.92 370.994 174.073 370.474 174.38C369.954 174.673 369.547 175.093 369.254 175.64C368.96 176.173 368.814 176.787 368.814 177.48V177.8C368.814 178.507 368.974 179.14 369.294 179.7C369.627 180.247 370.087 180.673 370.674 180.98C371.26 181.287 371.934 181.44 372.694 181.44C373.32 181.44 373.887 181.333 374.394 181.12C374.914 180.907 375.367 180.587 375.754 180.16L376.814 181.4C376.334 181.96 375.734 182.387 375.014 182.68C374.307 182.973 373.514 183.12 372.634 183.12ZM385.531 183V172.4H387.451V183H385.531ZM386.491 170.36C386.118 170.36 385.804 170.24 385.551 170C385.311 169.76 385.191 169.467 385.191 169.12C385.191 168.76 385.311 168.46 385.551 168.22C385.804 167.98 386.118 167.86 386.491 167.86C386.864 167.86 387.171 167.98 387.411 168.22C387.664 168.447 387.791 168.733 387.791 169.08C387.791 169.44 387.671 169.747 387.431 170C387.191 170.24 386.878 170.36 386.491 170.36Z" fill="white"/>
<rect x="1.69727" y="1" width="491" height="283" rx="34" stroke="url(#paint0_linear_876_314)" stroke-opacity="0.32" stroke-width="2"/>
</g>
<defs>
<filter id="filter0_b_876_314" x="-15.3027" y="-16" width="525" height="317" filterUnits="userSpaceOnUse" color-interpolation-filters="sRGB">
<feFlood flood-opacity="0" result="BackgroundImageFix"/>
<feGaussianBlur in="BackgroundImageFix" stdDeviation="8"/>
<feComposite in2="SourceAlpha" operator="in" result="effect1_backgroundBlur_876_314"/>
<feBlend mode="normal" in="SourceGraphic" in2="effect1_backgroundBlur_876_314" result="shape"/>
</filter>
<linearGradient id="paint0_linear_876_314" x1="247.197" y1="0" x2="247.197" y2="285" gradientUnits="userSpaceOnUse">
<stop stop-color="white"/>
<stop offset="1" stop-color="white" stop-opacity="0"/>
</linearGradient>
</defs>
</svg>
